<svg xmlns:rdf="http://www.w3.org/1999/02/22-rdf-syntax-ns#" xmlns="http://www.w3.org/2000/svg" xmlns:cc="http://web.resource.org/cc/" xmlns:xlink="http://www.w3.org/1999/xlink" xmlns:dc="http://purl.org/dc/elements/1.1/" xmlns:svg="http://www.w3.org/2000/svg" xmlns:inkscape="http://www.inkscape.org/namespaces/inkscape" xmlns:sodipodi="http://sodipodi.sourceforge.net/DTD/sodipodi-0.dtd" xmlns:ns1="http://sozi.baierouge.fr" viewBox="0 0.01 300.01 300">
  <defs>
    <radialGradient id="imagebot_8" gradientUnits="userSpaceOnUse" cx="76.246" cy="-104.88" r="108.55" gradientTransform="matrix(.36426 1.3 -1.2734 .35680 -85.079 -166.58)">
      <stop id="imagebot_31" stop-color="#ff9955" offset="0"/>
      <stop id="imagebot_30" stop-color="#ff6600" offset=".5"/>
      <stop id="imagebot_29" stop-color="#a14d2b" offset="1"/>
    </radialGradient>
    <linearGradient id="imagebot_6" y2=".07113" y1=".73319" x2=".80265" x1=".06279">
      <stop id="imagebot_27" stop-color="#0a0400" stop-opacity=".74902" offset="0"/>
      <stop id="imagebot_26" stop-color="#4d4d4d" offset=".5"/>
      <stop id="imagebot_25" stop-color="#2b1100" offset="1"/>
    </linearGradient>
  </defs>
  <g id="imagebot_2" label="Ebene 1">
    <g id="imagebot_4" transform="matrix(1.0364 0 0 1.0364 -24.107 -20.217)" label="Ebene 1">
      <path id="imagebot_7" d="m169.29-82.586c0 59.953-48.6 108.55-108.55 108.55-59.954 0.004-108.56-48.597-108.56-108.55 0.004-59.954 48.606-108.55 108.56-108.55 59.95 0 108.55 48.6 108.55 108.55z" transform="matrix(1.3333 0 0 1.3333 87.016 274.36)" fill="url(#imagebot_8)"/>
      <path id="imagebot_5" d="m135.59 23.144c-2.22 0.508-4.41 1.079-6.59 1.687-3.44 2.261-6.93 4.818-9.78 7.313-10.41 9.095-17.6 17.537-26.503 31.125-8.421 13.296-14.455 27.371-19.656 40.001-2.026 4.66-8.874 30.08-10.625 39.5-0.665 3.57-1.334 6.64-1.5 6.81-0.955 0.97-10.851-3.45-14.719-6.59-5.847-4.75-8.142-8.2-10.844-16.22-1.884-5.6-2.084-7.83-1.593-16.72-1.552 3.84-2.964 7.75-4.188 11.75v0.03c0.014 1.01 0.069 1.97 0.156 2.85 1.956 15.88 13.945 26.69 30.907 33.34 0.248 0.69 0.075 4.85-0.375 9.25-0.451 4.4-0.574 12.48-0.282 17.94 0.433 8.08 0.284 9.72-0.781 8.87-11.896-3.01-25.116-6.22-34.75-11.09 0.422 3.26 0.959 6.5 1.594 9.69 1.611 0.71 3.482 1.39 5.687 2.06 9.211 3.1 20.302 5.81 28.282 8.18 0.145 11.13 2.296 17.11 3.656 27.76l0.406 3.37-9.156-0.53c-5.051-0.3-9.848-0.15-10.625 0.34-1.197 0.76-1.176 0.9 0.094 0.94 1.216 0.04 1.169 0.3-0.25 1.38-0.396 0.29-0.769 0.74-1.063 1.24 0.718 1.23 1.466 2.43 2.219 3.63 0.989-0.22 1.189 0.05 0.812 1.03-0.028 0.07-0.039 0.12-0.062 0.19 0.175 0.27 0.354 0.54 0.531 0.81 0.472-0.11 1.226-0.41 2.344-0.87 1.874-0.79 6.511-1.44 10.312-1.44 6.79 0 6.954 0.07 8.219 3.12 2.622 7.47 6.045 14.9 9.281 21.88 2.418 5.11 7.357 12.7 13.125 20.31 2.322 1.49 4.684 2.92 7.094 4.28-8.154-9.24-15.255-19.41-16.156-24.22-3.553-6.49-4.029-14.8-5.938-21.12-0.402-1.32-0.264-2.25 0.344-2.25 0.569 0 6.142 1.9 12.375 4.19 13.628 4.36 28.118 10.18 38.938 16.65 21.98 13.2 42.78 22.16 64.37 27.72 8.27 2.13 12.78 2.64 26 2.91 11.22 0.22 13.17 0.13 6.5-0.32-7.58-0.51-10.14-1.11-12.65-2.9-1.74-1.24-4.1-2.25-5.28-2.25-18.05-4.82-32.7-9.8-50.07-18.41-4.67-2.34-14.57-7.35-22-11.15-10.19-6.35-23.13-10.23-33.34-14.88-1.732-0.8-8.818-3.28-15.749-5.53l-12.594-4.09-1.687-8.22c-1.805-8.8-3.708-22.95-3.157-23.5 0.185-0.19 3.871 0.17 8.188 0.78s19.544 1.26 33.839 1.47c21.94-0.67 47.93 0.24 71.19-1.47 4.59-0.01 34.09-2.7 54.31-4.97 28.87-3.24 58.46-10.79 72.5-18.5 2.03-1.11 3.86-2.3 5.29-3.34 0.17-2.01 0.31-4.03 0.4-6.07-0.94-0.09-2.88 0.67-6.81 2.41-9.93 4.39-32.73 10.41-55.22 14.56-12.58 2.33-37.8 5.36-62.16 7.47-30.36 2.63-115.03 1.58-121-1.5-1.776-0.92-2.559-17.73-1.277-27.56l0.782-6 7.968-0.78c10.302-1.02 23.719-5.53 35.027-11.78 41.77-31 85.8-61.77 132.57-79.004 10.94-3.8 13.83-4.384 23.81-4.875l5.69-0.281c-1.92-1.984-3.91-3.91-5.94-5.781-0.8-0.007-1.67 0-2.66 0-11.67 0-26.31 3.606-40.47 9.969-29.5 12.985-56.69 30.231-81.84 48.532-9.82 7.16-19.95 14.52-22.5 16.34-6.3 4.51-18.745 10.74-24.187 12.13-2.454 0.62-5.368 1.54-6.468 2.06-3.268 1.54-13.668 3.97-17.032 3.97h-3.125l0.813-6.25c0.996-7.56 3.922-24.34 6.469-31.75 10.451-30.414 35.56-73.813 60.56-89.626z" fill="url(#imagebot_6)"/>
    </g>
    <title>Ebene 1</title>
  </g>
  <metadata>
    <rdf:RDF>
      <cc:Work>
        <dc:format>image/svg+xml</dc:format>
        <dc:type rdf:resource="http://purl.org/dc/dcmitype/StillImage"/>
        <cc:license rdf:resource="http://creativecommons.org/licenses/publicdomain/"/>
        <dc:publisher>
          <cc:Agent rdf:about="http://openclipart.org/">
            <dc:title>Openclipart</dc:title>
          </cc:Agent>
        </dc:publisher>
        <dc:title>Basketball NoShadow</dc:title>
        <dc:date>2012-02-07T00:57:54</dc:date>
        <dc:description/>
        <dc:source>https://openclipart.org/detail/167867/basketball-noshadow-by-rduris</dc:source>
        <dc:creator>
          <cc:Agent>
            <dc:title>rduris</dc:title>
          </cc:Agent>
        </dc:creator>
        <dc:subject>
          <rdf:Bag>
            <rdf:li>ball</rdf:li>
            <rdf:li>sphere</rdf:li>
            <rdf:li>game</rdf:li>
            <rdf:li>sports</rdf:li>
            <rdf:li>basketball</rdf:li>
          </rdf:Bag>
        </dc:subject>
      </cc:Work>
      <cc:License rdf:about="http://creativecommons.org/licenses/publicdomain/">
        <cc:permits rdf:resource="http://creativecommons.org/ns#Reproduction"/>
        <cc:permits rdf:resource="http://creativecommons.org/ns#Distribution"/>
        <cc:permits rdf:resource="http://creativecommons.org/ns#DerivativeWorks"/>
      </cc:License>
    </rdf:RDF>
  </metadata>
</svg>