<svg xmlns="http://www.w3.org/2000/svg" viewBox="7.13 9.18 356.91 356.03">
 <title>red basketball</title>
 <metadata id="metadata2500">image/svg+xml</metadata>
 <g>
  <title>Layer 1</title>
  <g id="layer1">
   <g id="g2614">
    <path id="path2458" d="m240.758011,122.307999l23.469193,28.906006c-57.198196,41.895996 -32.864197,187.625992 -96.281204,213.999985c-44.873001,-4.410004 -84.893997,-25.470001 -113.780991,-56.905975c57.830017,-69.466019 117.640991,-135.60202 186.593002,-186.000015z" stroke-dashoffset="0" stroke-miterlimit="4" marker-end="none" marker-mid="none" marker-start="none" stroke-width="1px" fill-rule="evenodd" fill="#f70e0e"/>
    <path id="path2460" d="m207.040009,89.807602l25.280991,25.281395c-83.763,71.008003 -136.757004,130.49601 -182.344009,187.187004l-0.75,0.437988c-26.264984,-31.078003 -42.093994,-71.248993 -42.093994,-115.093994c0,-3.544998 0.109009,-7.067993 0.313019,-10.561996c31.714996,-63.998001 150.866989,-43.020004 199.593994,-87.250397l0,0l0,0l0,0z" stroke-dashoffset="0" stroke-miterlimit="4" marker-end="none" marker-mid="none" marker-start="none" stroke-width="1px" fill-rule="evenodd" fill="#f70e0e"/>
    <path id="path2462" d="m101.508026,40.745098c39.814972,0.397903 90.396973,26.011799 95.31398,40.6563c-1.617996,36.760605 -170.603989,25.988403 -188.375992,86.656601l-0.25,0.031006c5.585999,-51.196007 32.841003,-95.909103 72.405975,-124.750103c6.461029,-1.87701 13.548004,-2.667301 20.906036,-2.593811l0,0.000008z" stroke-dashoffset="0" stroke-miterlimit="4" marker-end="none" marker-mid="none" marker-start="none" stroke-width="1px" fill-rule="evenodd" fill="#f70e0e"/>
    <path id="path2464" d="m185.570999,9.18261c8.95401,0 17.77301,0.662371 26.375,1.9375c26.545013,28.734589 12.380005,54.549103 -1.875,62.437492c-12.166,8.663795 -43.542999,-45.580801 -122.219009,-35.2187c28.080017,-18.426401 61.64801,-29.156292 97.719009,-29.156292z" stroke-dashoffset="0" stroke-miterlimit="4" marker-end="none" marker-mid="none" marker-start="none" stroke-width="1px" fill-rule="evenodd" fill="#f70e0e"/>
    <path id="path2466" d="m266.914703,160.682999c1.626495,0.031006 3.330811,0.358002 5.125,0.968002c23.257111,18.248993 65.801117,106.070007 40.9375,149.843994c-0.00531,0.005005 0.005188,0.026001 0,0.031006c-32.391998,33.029999 -77.5242,53.532013 -127.406204,53.532013c-1.371994,0 -2.729996,-0.001007 -4.093994,-0.032013c53.736008,-38.834991 42.037994,-193.680008 85.437698,-204.343002z" stroke-dashoffset="0" stroke-miterlimit="4" marker-end="none" marker-mid="none" marker-start="none" stroke-width="1px" fill-rule="evenodd" fill="#f70e0e"/>
    <path id="path2468" d="m309.852203,139.151001c19.536011,0.619995 42.334442,10.860001 53.062469,33.125l0.562531,1.343994c0.359406,4.622009 0.5625,9.286011 0.5625,14c0,44.146011 -16.068176,84.554016 -42.656311,115.718994c24.608398,-77.248993 -50.266876,-145.168991 -42.124969,-152.718994c5.381592,-7.799988 17.22699,-11.89299 30.593781,-11.468994z" stroke-dashoffset="0" stroke-miterlimit="4" marker-end="none" marker-mid="none" marker-start="none" stroke-width="1px" fill-rule="evenodd" fill="#f70e0e"/>
    <path id="path2470" d="m315.508392,65.370087c25.212311,26.784012 42.279877,61.336914 47.125031,99.687912c-18.967316,-31.720993 -47.261536,-43.234001 -93,-19.25l-23.468414,-29.5c15.323395,-13.826599 47.640411,-37.700096 69.343384,-50.937912z" stroke-dashoffset="0" stroke-miterlimit="4" marker-end="none" marker-mid="none" marker-start="none" stroke-width="1px" fill-rule="evenodd" fill="#f70e0e"/>
    <path id="path2472" d="m219.665009,12.43261c34.956696,6.76811 66.282684,23.757389 90.749695,47.718792l-0.4375,0.781197c-25.737701,11.718914 -47.750702,30.929501 -70.43721,48.750004l-27.062988,-25.281204c17.632996,-17.784599 31.237991,-37.202198 7.188004,-71.968788z" stroke-dashoffset="0" stroke-miterlimit="4" marker-end="none" marker-mid="none" marker-start="none" stroke-width="1px" fill-rule="evenodd" fill="#f70e0e"/>
    <path d="m240.758011,122.307999l23.469193,28.906006c-57.198196,41.895996 -32.864197,187.625992 -96.281204,213.999985c-44.873001,-4.410004 -84.893997,-25.470001 -113.780991,-56.905975c57.830017,-69.466019 117.640991,-135.60202 186.593002,-186.000015z" id="path3332" stroke-dashoffset="0" stroke-miterlimit="4" marker-end="none" marker-mid="none" marker-start="none" stroke-width="1px" fill-rule="evenodd" fill="#f70e0e"/>
   </g>
  </g>
  <g id="svg_1">
   <g id="svg_2">
    <path d="m240.758011,122.307999l23.469193,28.906006c-57.198196,41.895996 -32.864197,187.625992 -96.281204,213.999985c-44.873001,-4.410004 -84.893997,-25.470001 -113.780991,-56.905975c57.830017,-69.466019 117.640991,-135.60202 186.593002,-186.000015z" stroke-dashoffset="0" stroke-miterlimit="4" marker-end="none" marker-mid="none" marker-start="none" stroke-width="1px" fill-rule="evenodd" fill="#00007f" id="svg_3"/>
    <path d="m207.040009,89.807602l25.280991,25.281395c-83.763,71.008003 -136.757004,130.49601 -182.344009,187.187004l-0.75,0.437988c-26.264984,-31.078003 -42.093994,-71.248993 -42.093994,-115.093994c0,-3.544998 0.109009,-7.067993 0.313019,-10.561996c31.714996,-63.998001 150.866989,-43.020004 199.593994,-87.250397l0,0l0,0l0,0z" stroke-dashoffset="0" stroke-miterlimit="4" marker-end="none" marker-mid="none" marker-start="none" stroke-width="1px" fill-rule="evenodd" fill="#00007f" id="svg_4"/>
    <path d="m101.508026,40.745098c39.814972,0.397903 90.396973,26.011799 95.31398,40.6563c-1.617996,36.760605 -170.603989,25.988403 -188.375992,86.656601l-0.25,0.031006c5.585999,-51.196007 32.841003,-95.909103 72.405975,-124.750103c6.461029,-1.87701 13.548004,-2.667301 20.906036,-2.593811l0,0.000008z" stroke-dashoffset="0" stroke-miterlimit="4" marker-end="none" marker-mid="none" marker-start="none" stroke-width="1px" fill-rule="evenodd" fill="#00007f" id="svg_5"/>
    <path d="m185.570999,9.18261c8.95401,0 17.77301,0.662371 26.375,1.9375c26.545013,28.734589 12.380005,54.549103 -1.875,62.437492c-12.166,8.663795 -43.542999,-45.580801 -122.219009,-35.2187c28.080017,-18.426401 61.64801,-29.156292 97.719009,-29.156292z" stroke-dashoffset="0" stroke-miterlimit="4" marker-end="none" marker-mid="none" marker-start="none" stroke-width="1px" fill-rule="evenodd" fill="#00007f" id="svg_6"/>
    <path d="m266.914703,160.682999c1.626495,0.031006 3.330811,0.358002 5.125,0.968002c23.257111,18.248993 65.801117,106.070007 40.9375,149.843994c-0.00531,0.005005 0.005188,0.026001 0,0.031006c-32.391998,33.029999 -77.5242,53.532013 -127.406204,53.532013c-1.371994,0 -2.729996,-0.001007 -4.093994,-0.032013c53.736008,-38.834991 42.037994,-193.680008 85.437698,-204.343002z" stroke-dashoffset="0" stroke-miterlimit="4" marker-end="none" marker-mid="none" marker-start="none" stroke-width="1px" fill-rule="evenodd" fill="#00007f" id="svg_7"/>
    <path d="m309.852203,139.151001c19.536011,0.619995 42.334442,10.860001 53.062469,33.125l0.562531,1.343994c0.359406,4.622009 0.5625,9.286011 0.5625,14c0,44.146011 -16.068176,84.554016 -42.656311,115.718994c24.608398,-77.248993 -50.266876,-145.168991 -42.124969,-152.718994c5.381592,-7.799988 17.22699,-11.89299 30.593781,-11.468994z" stroke-dashoffset="0" stroke-miterlimit="4" marker-end="none" marker-mid="none" marker-start="none" stroke-width="1px" fill-rule="evenodd" fill="#00007f" id="svg_8"/>
    <path d="m315.508392,65.370087c25.212311,26.784012 42.279877,61.336914 47.125031,99.687912c-18.967316,-31.720993 -47.261536,-43.234001 -93,-19.25l-23.468414,-29.5c15.323395,-13.826599 47.640411,-37.700096 69.343384,-50.937912z" stroke-dashoffset="0" stroke-miterlimit="4" marker-end="none" marker-mid="none" marker-start="none" stroke-width="1px" fill-rule="evenodd" fill="#00007f" id="svg_9"/>
    <path d="m219.665009,12.43261c34.956696,6.76811 66.282684,23.757389 90.749695,47.718792l-0.4375,0.781197c-25.737701,11.718914 -47.750702,30.929501 -70.43721,48.750004l-27.062988,-25.281204c17.632996,-17.784599 31.237991,-37.202198 7.188004,-71.968788z" stroke-dashoffset="0" stroke-miterlimit="4" marker-end="none" marker-mid="none" marker-start="none" stroke-width="1px" fill-rule="evenodd" fill="#00007f" id="svg_10"/>
    <path d="m240.758011,122.307999l23.469193,28.906006c-57.198196,41.895996 -32.864197,187.625992 -96.281204,213.999985c-44.873001,-4.410004 -84.893997,-25.470001 -113.780991,-56.905975c57.830017,-69.466019 117.640991,-135.60202 186.593002,-186.000015z" stroke-dashoffset="0" stroke-miterlimit="4" marker-end="none" marker-mid="none" marker-start="none" stroke-width="1px" fill-rule="evenodd" fill="#00007f" id="svg_11"/>
   </g>
  </g>
 </g>
</svg>