<svg xmlns:dc="http://purl.org/dc/elements/1.1/" xmlns:cc="http://creativecommons.org/ns#" xmlns:rdf="http://www.w3.org/1999/02/22-rdf-syntax-ns#" xmlns:svg="http://www.w3.org/2000/svg" xmlns="http://www.w3.org/2000/svg" xmlns:sodipodi="http://sodipodi.sourceforge.net/DTD/sodipodi-0.dtd" xmlns:inkscape="http://www.inkscape.org/namespaces/inkscape" id="svg3406" version="1.1" inkscape:version="0.91 r13725" sodipodi:docname="silhouette-basket-05.svg" viewBox="0 0 453.87 512">
  <title id="title3340">Silhouette Basket 05</title>
  <metadata id="metadata3412">
    <rdf:RDF>
      <cc:Work rdf:about="">
        <dc:format>image/svg+xml</dc:format>
        <dc:type rdf:resource="http://purl.org/dc/dcmitype/StillImage"/>
        <dc:title>Silhouette Basket 05</dc:title>
        <cc:license rdf:resource="http://creativecommons.org/publicdomain/zero/1.0/"/>
        <dc:date>2017-03-26</dc:date>
        <dc:creator>
          <cc:Agent>
            <dc:title>JLouis</dc:title>
          </cc:Agent>
        </dc:creator>
        <dc:rights>
          <cc:Agent>
            <dc:title>Domaine pubic</dc:title>
          </cc:Agent>
        </dc:rights>
        <dc:publisher>
          <cc:Agent>
            <dc:title>inkscape</dc:title>
          </cc:Agent>
        </dc:publisher>
        <dc:subject>
          <rdf:Bag>
            <rdf:li>silhouette</rdf:li>
            <rdf:li>Basketball</rdf:li>
            <rdf:li>player</rdf:li>
            <rdf:li>sport</rdf:li>
            <rdf:li>basket</rdf:li>
            <rdf:li>joueurs</rdf:li>
          </rdf:Bag>
        </dc:subject>
        <dc:description>Basketball player in silhouette - Joueur de basket en silhouette</dc:description>
      </cc:Work>
      <cc:License rdf:about="http://creativecommons.org/publicdomain/zero/1.0/">
        <cc:permits rdf:resource="http://creativecommons.org/ns#Reproduction"/>
        <cc:permits rdf:resource="http://creativecommons.org/ns#Distribution"/>
        <cc:permits rdf:resource="http://creativecommons.org/ns#DerivativeWorks"/>
      </cc:License>
    </rdf:RDF>
  </metadata>
  <defs id="defs3410"/>
  <sodipodi:namedview pagecolor="#ffffff" bordercolor="#666666" borderopacity="1" objecttolerance="10" gridtolerance="10" guidetolerance="10" inkscape:pageopacity="0" inkscape:pageshadow="2" inkscape:window-width="1237" inkscape:window-height="756" id="namedview3408" showgrid="false" fit-margin-top="0" fit-margin-left="0" fit-margin-right="0" fit-margin-bottom="0" inkscape:zoom="0.56079404" inkscape:cx="-154.83904" inkscape:cy="251.88538" inkscape:window-x="0" inkscape:window-y="0" inkscape:window-maximized="1" inkscape:current-layer="svg3406"/>
  <g id="g3416" transform="matrix(0.52244606,0,0,0.52244606,-5.2244606,-7.8273916)">
    <path style="fill:#d7e7f4" d="m 443.26034,993.23842 c -5.19832,-1.94017 -13.86264,-9.74067 -18.91124,-17.0258 -1.88056,-2.71365 -4.06855,-9.05047 -5.60104,-16.22168 -1.50712,-7.0525 -3.78465,-13.68712 -5.6835,-16.55648 -1.74272,-2.63344 -3.74011,-7.87967 -4.43862,-11.65831 -0.69853,-3.77865 -2.197,-9.23971 -3.32997,-12.1357 -1.46735,-3.75075 -2.10086,-9.58048 -2.20221,-20.26545 -0.1599,-16.85664 -2.21427,-39.55655 -4.89271,-54.06228 -0.98385,-5.32825 -2.70451,-15.03147 -3.82369,-21.56272 -2.92196,-17.05183 -4.25924,-24.16979 -6.92781,-36.875 -5.57674,-26.55116 -6.89075,-52.41114 -3.2393,-63.75 1.10697,-3.4375 2.01924,-9.90625 2.02724,-14.375 0.0183,-10.16135 2.89148,-24.183 7.00773,-34.19781 1.7355,-4.22245 4.29214,-10.91681 5.68142,-14.87636 l 2.52595,-7.19918 -3.2263,-3.83422 c -4.80512,-5.71058 -4.54507,-14.82349 0.65712,-23.02648 3.87544,-6.11092 3.88041,-6.1416 2.4263,-14.93222 -3.1577,-19.08938 -3.61471,-36.90343 -1.6851,-65.68373 1.47815,-22.04664 2.65261,-31.23171 5.43436,-42.5 8.50602,-34.45614 11.64362,-62.47689 8.72677,-77.93561 -0.86285,-4.57292 -1.79761,-8.31439 -2.07725,-8.31439 -0.27965,0 -5.70033,2.61482 -12.04597,5.81071 -11.6731,5.879 -33.10008,13.15803 -43.41252,14.74782 -8.2816,1.2767 -24.36141,6.58312 -32.69285,10.78882 -4.00944,2.02396 -10.2469,4.48506 -13.86103,5.46911 -9.67751,2.635 -19.99448,7.19957 -23.36042,10.33542 -3.29876,3.07326 -12.89046,6.26752 -32.88791,10.95244 -13.72717,3.21595 -19.67428,3.71173 -24.04402,2.00444 -1.35916,-0.53104 -4.45291,-0.54625 -6.875,-0.0337 -6.25652,1.3237 -15.95925,2.14874 -43.77877,3.72255 -35.72221,2.02089 -45.66208,3.67853 -54.56918,9.10034 -4.32793,2.63445 -10.44736,5.04606 -15.01313,5.91656 -7.2778,1.38753 -22.286841,1.05929 -29.16769,-0.63791 -2.613611,-0.64466 -5.549,1.19174 -17.937593,11.22188 -10.286322,8.32807 -15.633781,11.87438 -17.5,11.60557 -4.395671,-0.63314 -2.796439,-5.93782 3.386046,-11.23157 2.956397,-2.53142 6.845187,-6.52973 8.641754,-8.88515 l 3.266485,-4.28259 -13.365846,3.57516 c -21.582708,5.77304 -25.332977,6.47801 -26.777387,5.03361 -2.372148,-2.37215 0.06067,-4.99535 7.938116,-8.55935 4.29019,-1.94101 10.933039,-5.0022 14.761885,-6.80265 l 6.96154,-3.27354 -3.485797,-1.63661 c -1.917189,-0.90013 -3.237861,-2.28272 -2.934827,-3.07241 0.3486,-0.90845 -3.650974,-2.45207 -10.889202,-4.20267 C 16.736177,470.20884 10,467.11193 10,463.77189 c 0,-3.97889 2.66489,-4.26057 18.155183,-1.91898 14.489728,2.19035 27.607108,1.93605 40.594817,-0.78697 3.09375,-0.64864 16.59375,-1.65104 30,-2.22755 25.59805,-1.10079 34.02142,-2.71074 56.875,-10.87045 4.8125,-1.71828 12.40625,-4.28553 16.875,-5.705 31.85391,-10.11824 38.27276,-12.53827 40.625,-15.31642 2.89191,-3.41553 6.10501,-5.30161 30.27915,-17.77375 13.94043,-7.19227 18.93338,-9.17315 23.125,-9.17448 6.4581,-0.002 22.35739,-2.69779 38.47085,-6.52273 8.8832,-2.10866 14.64465,-4.44752 22.86825,-9.28341 6.0463,-3.55553 16.45255,-8.72311 23.125,-11.48353 18.58468,-7.68855 33.68076,-13.78547 44.00675,-17.7732 5.60525,-2.16466 10.63159,-5.06363 12.5,-7.20948 1.71875,-1.97397 7.68141,-8.8792 13.25035,-15.34498 7.97162,-9.2554 12.0928,-12.87372 19.375,-17.01094 7.87302,-4.47288 21.7436,-9.27317 35.16087,-12.16838 3.25645,-0.70268 3.37606,-0.99275 2.63587,-6.39297 -0.68132,-4.97078 -0.31375,-6.29966 3.03058,-10.95656 3.4773,-4.84206 3.65828,-5.56639 2.09593,-8.3884 -2.15774,-3.89741 -2.19188,-9.71981 -0.0793,-13.52922 1.38554,-2.49844 1.30341,-3.58244 -0.54626,-7.21048 -1.19733,-2.34849 -1.9009,-5.32562 -1.56349,-6.61587 0.35249,-1.34792 4.85114,-4.62673 10.57462,-7.70727 9.66331,-5.20107 17.31578,-12.00612 17.31578,-15.39831 0,-2.97587 12.37714,-13.32641 20.457,-17.10744 5.78695,-2.70803 10.52644,-3.88442 17.77916,-4.41293 13.95038,-1.01657 32.2027,1.16011 41.53881,4.95371 l 7.73604,3.14344 3.64894,-3.07039 c 5.0751,-4.27038 14.63589,-17.48795 23.8767,-33.00895 4.29785,-7.21875 9.70409,-15.73161 12.01384,-18.91748 4.69132,-6.47074 5.13165,-9.95242 2.18884,-17.30722 -2.25628,-5.639 -3.16026,-5.9029 -10.02413,-2.92634 -6.80584,2.95139 -30.04562,2.80963 -39.35826,-0.24009 -21.11788,-6.91571 -36.4725,-20.90931 -42.88471,-39.083444 C 543.33521,92.260051 542.55326,78.747425 543.93401,68.125 546.44452,48.811164 561.0728,29.373325 580,20.201045 c 8.6717,-4.202381 10.38695,-4.578385 22.86441,-5.012181 15.93822,-0.554114 26.34527,2.127091 38.33485,9.876341 C 651.93355,32.003107 667.5,52.14682 667.5,59.099581 c 0,0.92548 1.68164,3.293798 3.73696,5.262927 2.05533,1.969129 3.46647,3.850738 3.13584,4.181352 -0.33061,0.330615 0.0349,1.367399 0.81213,2.303966 2.57445,3.102025 4.13433,35.787254 2.40541,50.402174 -2.20353,18.62681 -6.93559,39.26793 -11.17615,48.75 -1.9985,4.46875 -4.77215,12.0625 -6.16365,16.875 -6.43615,22.25939 -20.94085,61.00132 -27.81424,74.29157 -4.11265,7.95214 -11.26514,19.46734 -15.89442,25.58935 -4.62928,6.12202 -9.61218,12.75352 -11.0731,14.73667 -1.46093,1.98315 -4.75302,10.73739 -7.31574,19.45383 -4.42738,15.05858 -4.61805,16.44172 -3.82731,27.76334 0.4577,6.55339 1.87078,15.00899 3.14018,18.79024 3.11575,9.2811 5.54949,38.68604 4.59429,55.50891 -0.70336,12.3873 -1.17891,14.4161 -5.20106,22.18835 -2.4448,4.72425 -6.07885,15.13028 -8.11639,23.24109 -4.71366,18.76366 -6.23335,22.16096 -16.35491,36.56165 -4.59051,6.53125 -9.89035,14.96875 -11.77741,18.75 -1.88708,3.78125 -4.51699,8.41455 -5.84427,10.29623 -1.32727,1.88167 -4.02453,8.56071 -5.99391,14.84229 l -3.5807,11.42109 2.16418,8.52199 c 2.63726,10.38481 1.76615,22.29104 -2.18559,29.87262 -1.46858,2.81752 -2.65779,6.08982 -2.64269,7.27177 0.0526,4.11597 4.87258,12.79806 7.72809,13.92032 6.74846,2.65226 19.72439,19.19999 26.12501,33.31625 5.47788,12.0812 7.2968,21.65506 8.17663,43.03744 0.8376,20.35617 -0.4023,31.09952 -4.05504,35.13576 -3.06536,3.38719 -5.4439,14.59471 -5.71306,26.9197 -0.20437,9.35785 0.1753,12.0777 2.09387,15 1.74133,2.6523 2.54376,6.94215 3.12284,16.69454 0.51837,8.73011 1.48242,14.38069 2.87907,16.875 1.47028,2.62584 2.10774,6.74777 2.12642,13.75 0.0146,5.5 0.72307,12.32709 1.57421,15.17131 l 1.54754,5.17133 9.37098,-3.61188 c 5.15405,-1.98652 11.33974,-4.56815 13.74599,-5.73694 4.70004,-2.28295 47.5,-43.7443 47.5,-46.01438 0,-0.75022 1.96875,-3.27222 4.375,-5.60444 3.73938,-3.62435 4.375,-5.06785 4.375,-9.93563 0,-3.13235 1.3863,-11.31888 3.08068,-18.19228 3.67211,-14.8963 6.34746,-18.12209 15.02979,-18.12209 6.88087,0 7.76944,-2.12961 5.15182,-12.34719 -1.89367,-7.39167 -2.59975,-20.61911 -1.68862,-31.63349 0.86432,-10.44832 -0.72867,-10.06248 38.35052,-9.28893 76.22212,1.50874 90.72532,1.97908 99.27932,3.21967 4.90683,0.71163 12.85899,1.86825 17.67149,2.57028 12.88521,1.87962 26.20804,6.9256 32.1875,12.1909 4.30569,3.79143 1.81708,14.31568 -4.84605,20.49377 -3.07424,2.85045 -5.39161,3.53833 -16.09145,4.77645 -13.69563,1.58479 -39.61367,6.88933 -43.29954,8.86195 -1.279,0.6845 -2.32757,1.64663 -2.33015,2.13807 -0.003,0.49143 -2.3932,1.87933 -5.3125,3.08421 -4.92437,2.03243 -24.87173,17.19211 -25.65555,19.4978 -0.19125,0.5626 2.9025,1.74737 6.875,2.63282 27.49803,6.12914 52.64609,22.16639 61.82825,39.42869 3.02682,5.69036 3.21115,6.80964 2.05863,12.5 -0.69623,3.4375 -1.50813,7.5208 -1.8042,9.074 -0.29609,1.5532 -2.86073,4.50633 -5.69919,6.5625 -6.0595,4.38949 -13.4817,4.90451 -27.91075,1.93676 -4.8125,-0.98983 -15.39986,-2.40731 -23.52748,-3.14993 -14.28175,-1.30495 -15.11517,-1.24357 -24.84477,1.83001 -5.53703,1.74915 -14.25765,4.92471 -19.37919,7.05681 -6.80019,2.83092 -9.6846,3.50381 -10.69371,2.4947 -1.00911,-1.00911 -2.47845,-0.5454 -5.44744,1.71916 -2.23608,1.70554 -4.94689,3.10099 -6.02401,3.10099 -1.07713,0 -1.9584,0.68076 -1.9584,1.51281 0,0.83205 -3.78895,5.11987 -8.41989,9.52848 -8.09051,7.70209 -8.54282,7.94732 -11.5625,6.269 -1.72844,-0.96065 -3.6846,-2.96763 -4.34702,-4.45994 -1.89246,-4.26339 -6.67922,-4.79017 -10.53183,-1.15904 -4.57505,4.31205 -12.27426,7.23275 -16.90017,6.41106 -3.73609,-0.66362 -4.30273,-0.0971 -17.17105,17.16818 -7.31912,9.81995 -16.15552,21.09531 -19.63647,25.05636 -7.35862,8.37355 -19.5724,25.89483 -28.29607,40.59214 -6.45405,10.87352 -22.04779,27.65402 -31.69526,34.10742 -7.633,5.10588 -18.15197,8.78377 -25.66756,8.97452 -5.38213,0.13658 -7.88472,-0.67823 -15.77218,-5.1353 -5.15625,-2.9137 -11.17196,-7.02435 -13.36825,-9.13477 l -3.99326,-3.83711 -6.56645,5.9038 c -7.51459,6.75626 -11.92173,9.18881 -27.8204,15.35565 -13.4713,5.2253 -29.09413,6.71925 -37.4913,3.58516 z" id="path3430" inkscape:connector-curvature="0"/>
    <path style="fill:#97cef5" d="m 443.125,992.99434 c -6.53748,-2.39208 -16.21131,-12.00646 -19.9922,-19.86934 -1.65294,-3.4375 -3.64193,-9.90625 -4.41998,-14.375 -0.77803,-4.46875 -2.9972,-10.9375 -4.93146,-14.375 -1.93426,-3.4375 -3.89681,-8.21875 -4.36121,-10.625 -0.4644,-2.40625 -2.27736,-8.79369 -4.0288,-14.1943 -2.65148,-8.1759 -3.03909,-11.10409 -2.31594,-17.49585 1.5817,-13.9804 -3.518,-54.16345 -13.03192,-102.68485 -8.16927,-41.66356 -9.67439,-60.98064 -5.85782,-75.18043 1.13538,-4.22423 2.06433,-11.01392 2.06433,-15.08818 0,-9.48117 3.91422,-27.82999 7.8215,-36.66502 1.67006,-3.77632 4.02745,-9.84955 5.23862,-13.49606 l 2.20214,-6.63001 -2.94362,-3.13336 c -2.44382,-2.60131 -2.94364,-4.46094 -2.94364,-10.95202 0,-6.60507 0.5669,-8.6367 3.65224,-13.08885 l 3.65223,-5.27018 -1.53488,-9.62294 c -3.1856,-19.97209 -3.62005,-36.38514 -1.71054,-64.62295 1.51811,-22.44979 2.6263,-30.71378 6.03444,-45 5.91978,-24.81456 8.05462,-37.90861 8.86525,-54.375 0.60925,-12.37565 -0.73044,-27.81336 -2.57359,-29.65651 -0.27471,-0.27473 -5.48001,2.00002 -11.56731,5.05498 -11.14947,5.59545 -31.65262,12.26648 -52.17554,16.97615 -6.10924,1.40197 -14.82799,4.31862 -19.375,6.48144 -4.54701,2.16281 -12.7673,5.50229 -18.2673,7.42104 -18.56548,6.47682 -21.24168,7.64152 -24.375,10.60814 -3.34144,3.16363 -15.92086,7.19913 -37.17566,11.92598 -11.21857,2.49489 -13.40364,2.64774 -17.67928,1.23665 -2.68324,-0.88555 -5.47077,-1.24411 -6.19452,-0.79681 -1.70993,1.0568 -34.87859,4.09725 -56.45054,5.17463 -25.2569,1.26141 -37.66933,3.37281 -42.79033,7.27878 -7.12742,5.43636 -14.16443,7.32783 -27.83467,7.48164 -6.875,0.0774 -14.46875,-0.30256 -16.875,-0.84427 -4.039433,-0.90938 -4.998198,-0.4807 -12.5,5.58889 C 49.559463,515.70749 47.100363,517.5 44.990135,517.5 c -4.927765,0 -3.755106,-3.95046 3.463828,-11.66899 3.963976,-4.23831 8.211178,-8.90594 9.438227,-10.3725 l 2.230997,-2.66649 -9.124093,2.22758 c -5.018251,1.22517 -13.822556,3.46412 -19.565121,4.97546 -7.732453,2.03504 -10.805737,2.38318 -11.846905,1.342 -2.552092,-2.55209 0.698466,-5.03086 15.18768,-11.58167 l 14.149746,-6.39734 -3.524747,-2.88408 C 43.461136,478.88774 42.4375,477.53225 43.125,477.46177 43.8125,477.3913 37.738528,475.4076 29.627282,473.05358 12.144506,467.97974 10,466.95413 10,463.66679 c 0,-3.88018 2.923259,-4.18479 17.590739,-1.83303 13.94055,2.23521 29.463998,1.95258 42.409261,-0.77215 3.09375,-0.65116 16.3125,-1.63869 29.375,-2.19449 25.06944,-1.06668 30.57173,-2.1128 54.375,-10.33795 5.84375,-2.01928 17.69714,-5.82283 26.34087,-8.45235 23.25989,-7.07587 31.02966,-10.1429 33.43192,-13.19688 2.27633,-2.89389 26.86232,-16.87747 40.7274,-23.16419 C 259.36917,401.3947 264.5149,400 267.95946,400 c 5.93473,0 19.66504,-2.35491 37.66554,-6.46008 7.70612,-1.75745 13.61259,-4.04008 18.75,-7.2462 10.81445,-6.74897 16.21671,-9.34593 34.07582,-16.38081 8.75831,-3.44999 19.58043,-7.85855 24.04918,-9.79681 4.46875,-1.93826 10.9375,-4.53926 14.375,-5.78 6.78773,-2.44999 9.00435,-4.46621 23.125,-21.03441 10.85329,-12.73452 21.58465,-20.11845 36.4704,-25.09427 5.27746,-1.76408 10.33996,-3.21056 11.25,-3.2144 0.91002,-0.004 3.6962,-0.57405 6.19147,-1.26716 4.50897,-1.25244 4.53589,-1.30047 4.375,-7.80552 -0.13421,-5.42664 0.45058,-7.34595 3.42152,-11.2296 3.41986,-4.47049 3.49116,-4.825 1.5625,-7.76852 -2.60724,-3.97913 -2.5627,-8.27558 0.1345,-12.97517 2.04052,-3.5554 2.04052,-3.88248 0,-6.13723 -2.77507,-3.06641 -2.7597,-8.14022 0.0321,-10.59858 1.20313,-1.05944 5.06044,-3.36545 8.5718,-5.1245 8.43914,-4.22764 13.83154,-8.89284 16.68104,-14.43148 5.06646,-9.84781 19.26996,-19.16366 32.6621,-21.42254 12.94192,-2.18293 32.46991,-0.53602 44.9709,3.79268 l 10.03267,3.47399 3.60145,-3.03042 c 4.734,-3.9834 14.22908,-16.97336 23.18514,-31.71897 3.96689,-6.53125 9.70086,-15.5807 12.74216,-20.10988 l 5.52963,-8.23487 -2.54922,-7.25299 c -1.40207,-3.98914 -2.7382,-7.44197 -2.96919,-7.67296 -0.231,-0.23099 -3.34561,0.69167 -6.92139,2.05036 -8.43876,3.20648 -30.2098,3.45271 -40.31021,0.45594 -20.47699,-6.07551 -36.57725,-21.01655 -42.98496,-39.890008 -2.66469,-7.848672 -2.68424,-27.266275 -0.0376,-37.373132 4.14212,-15.81791 19.40474,-33.61591 35.14275,-40.98062 7.40881,-3.467001 10.07164,-4.0167 21.79789,-4.499841 11.95328,-0.492495 14.39311,-0.205009 23.20031,2.733698 9.26662,3.092003 16.1016,6.880465 22.82132,12.649303 5.23884,4.497499 14.96982,18.20043 17.15915,24.163094 1.17874,3.210298 3.71328,7.524406 5.63229,9.586906 1.91903,2.0625 3.45554,4.03125 3.41449,4.375 -0.041,0.34375 0.50611,2.875 1.21595,5.625 2.57755,9.985896 3.0692,35.39748 0.97269,50.27568 -2.61799,18.57893 -7.3916,38.45588 -11.2287,46.75534 -1.70852,3.69544 -4.50965,11.21898 -6.22474,16.71898 -17.7414,56.89364 -31.87564,86.67002 -52.6747,110.96904 -3.12309,3.64865 -5.11195,8.4757 -8.73446,21.19898 -4.45279,15.63944 -4.64744,17.07928 -3.83987,28.40328 0.46789,6.56079 1.89428,15.34692 3.16975,19.52476 3.1471,10.30839 5.54612,39.42231 4.52202,54.8781 -0.7082,10.68821 -1.45048,13.80953 -5.05959,21.27584 -4.14415,8.57317 -7.65306,19.40871 -10.727,33.125 -1.98051,8.83726 -4.8032,14.41464 -13.91763,27.5 -10.94466,15.71299 -20.2569,33.01067 -24.16191,44.88129 -3.3997,10.33456 -3.42281,10.61218 -1.414,16.98486 3.0272,9.60341 2.60716,20.9933 -1.10669,30.00885 -1.69925,4.125 -3.09215,8.41567 -3.09533,9.53485 -0.0113,4.04852 3.8322,11.08742 7.18823,13.16361 6.17503,3.82014 12.94715,10.90314 18.50803,19.35765 11.55329,17.56511 15.28702,30.87218 16.39804,58.4426 0.77456,19.22109 -0.64668,31.11395 -4.05639,33.94376 -3.03,2.51468 -5.49325,13.6323 -5.80108,26.18253 -0.23751,9.68334 0.14748,12.68245 2.08597,16.25 1.68425,3.09965 2.5169,7.65449 2.85632,15.625 0.31143,7.31305 1.32526,13.29956 2.89709,17.10672 1.63879,3.96939 2.44896,9.00458 2.51406,15.625 0.0529,5.37255 0.75596,11.86907 1.5625,14.43669 l 1.46644,4.66841 13.68897,-5.51802 13.68898,-5.51802 21.93602,-22.45709 c 28.90269,-29.58923 30.05372,-31.03787 30.09045,-37.87065 0.0161,-3.01018 1.14118,-9.65375 2.5,-14.7635 1.35882,-5.10976 2.47338,-10.17226 2.47679,-11.25 0.004,-1.07775 1.33855,-3.62471 2.96696,-5.65994 2.43132,-3.03871 4.1625,-3.82104 9.68129,-4.375 6.22838,-0.6252 6.74979,-0.92931 7.11999,-4.15276 0.2197,-1.91299 -0.46493,-6.13174 -1.52139,-9.375 -1.05647,-3.24327 -1.90464,-10.11559 -1.88482,-15.27184 0.0199,-5.15625 0.0364,-11.0625 0.0367,-13.125 10e-4,-5.7518 2.348,-10.57814 5.53221,-11.37731 1.57892,-0.39629 17.39834,-0.38607 35.15426,0.0227 17.75591,0.40878 43.25224,0.97206 56.65849,1.25172 29.15394,0.60818 37.53662,1.27455 56.7764,4.51344 14.91095,2.51015 30.65872,8.42257 34.32409,12.8868 2.25466,2.74607 1.13328,11.41376 -2.02368,15.64219 -4.57351,6.12571 -7.96056,7.58127 -20.95181,9.00391 -22.39669,2.4526 -43.09333,7.48705 -44.57456,10.84274 -0.23399,0.53008 -2.95669,2.15793 -6.05044,3.61743 -5.71543,2.69629 -25,17.62188 -25,19.34913 0,0.51974 3.23437,1.61077 7.1875,2.4245 19.22686,3.95774 37.00924,13.00514 50.13045,25.50557 10.57954,10.079 14.39572,17.56743 13.32841,26.15404 -1.1624,9.35158 -2.8161,12.71925 -8.01499,16.32209 -5.15613,3.5732 -13.57001,4.23492 -23.81797,1.87321 -6.69163,-1.54212 -21.33383,-3.4907 -32.85294,-4.37204 -9.3039,-0.71185 -19.36268,1.8091 -37.55217,9.41139 -7.69197,3.21485 -10.089,3.75213 -11.50327,2.5784 -1.41777,-1.17665 -2.37416,-0.93524 -4.63341,1.16956 -1.56577,1.45874 -3.99831,2.94127 -5.40564,3.29448 -1.40732,0.35321 -3.66852,2.31442 -5.02487,4.35824 -1.35635,2.04382 -4.26331,4.95712 -6.45991,6.47402 -2.19659,1.51689 -4.57515,4.03391 -5.2857,5.59338 -0.71049,1.55943 -2.07179,2.83536 -3.02506,2.83536 -2.49085,0 -8.32038,-4.86374 -8.32038,-6.94191 0,-0.96825 -1.44286,-2.12259 -3.20635,-2.5652 -2.40112,-0.60264 -4.04919,-0.0277 -6.5625,2.28901 -4.43687,4.08998 -12.43729,7.04896 -17.13769,6.33845 -3.60367,-0.54474 -4.43599,0.30254 -17.69703,18.0154 -7.65353,10.22286 -16.4194,21.37753 -19.47972,24.78814 -6.90351,7.6937 -18.2537,23.8836 -27.13205,38.70111 -11.30251,18.86331 -30.07457,36.30561 -45.29959,42.09066 -10.47108,3.9787 -16.85645,3.37651 -28.07518,-2.64771 -5.38169,-2.88986 -11.61302,-7.0102 -13.84739,-9.15632 L 515,968.25959 l -4.0625,3.80297 c -7.48925,7.01083 -12.8568,10.31688 -24.74644,15.2422 -18.82742,7.79932 -32.39977,9.59239 -43.06606,5.68958 z" id="path3428" inkscape:connector-curvature="0"/>
    <path style="fill:#76c3fb" d="m 442.85596,992.93664 c -6.17775,-2.18782 -17.10571,-13.43618 -20.4617,-21.06164 -1.21029,-2.75 -2.84606,-8.65625 -3.63506,-13.125 -0.789,-4.46875 -3.0826,-11.0696 -5.09688,-14.66856 C 411.64805,940.48248 410,936.71464 410,935.70846 c 0,-1.00617 -1.53352,-6.49907 -3.40784,-12.20643 -2.92394,-8.90353 -3.42758,-12.59572 -3.54691,-26.00203 -0.15985,-17.95899 -2.03265,-38.87311 -4.89545,-54.66896 -6.76663,-37.3356 -8.53235,-46.81541 -10.09239,-54.18396 -5.85457,-27.65293 -7.2743,-51.47984 -3.84042,-64.4525 1.11815,-4.22424 2.03301,-10.65914 2.03301,-14.29977 0,-9.28501 2.14389,-20.00233 6.48023,-32.39481 2.04482,-5.84375 4.86221,-13.89571 6.26085,-17.89325 l 2.54297,-7.26826 -2.67797,-2.85059 c -1.64702,-1.75315 -2.95842,-5.21831 -3.4064,-9.00084 -0.73585,-6.2131 0.52336,-10.41605 5.44375,-18.16998 1.88416,-2.96923 1.93286,-4.3316 0.47555,-13.30537 -4.91298,-30.25291 -3.00035,-77.6625 4.37258,-108.38671 5.8451,-24.35743 9.27122,-46.74132 9.18368,-60 -0.0732,-11.09365 -1.3754,-22.49183 -2.72355,-23.83999 -0.38006,-0.38006 -5.67155,1.8085 -11.75885,4.86346 -11.30584,5.67393 -31.73399,12.29378 -52.9379,17.15482 -6.52854,1.49668 -15.01905,4.31083 -18.86781,6.25368 -3.84877,1.94285 -11.72599,5.21225 -17.50494,7.26534 -20.07578,7.13229 -21.77431,7.87041 -24.88219,10.81293 -3.41071,3.22922 -16.83256,7.50046 -37.42155,11.90867 -11.06837,2.36979 -13.54114,2.53853 -17.59512,1.20059 -2.59429,-0.8562 -5.30904,-1.19074 -6.03279,-0.74344 -1.70993,1.0568 -34.87859,4.09725 -56.45054,5.17463 -26.42662,1.31984 -37.1647,3.26037 -43.78234,7.91219 -9.57077,6.72768 -27.751999,9.09998 -44.34266,5.78587 -3.330896,-0.66538 -5.421421,0.58507 -18.705304,11.18857 -8.225417,6.56573 -15.959792,11.93768 -17.1875,11.93768 -4.641873,0 -2.232548,-5.33421 6.617459,-14.65098 4.86731,-5.12401 8.664185,-9.49537 8.4375,-9.71413 -0.392911,-0.37919 -5.852926,0.94626 -27.618276,6.7045 -5.338368,1.41232 -10.541493,2.2473 -11.5625,1.8555 -4.53065,-1.73858 -1.173458,-4.63116 13.143621,-11.32466 8.25,-3.85704 15,-7.35358 15,-7.7701 0,-0.41652 -1.265625,-1.33315 -2.8125,-2.03697 -1.546875,-0.70381 -2.689191,-1.91025 -2.538481,-2.68096 0.15071,-0.77072 -2.66179,-2.08784 -6.25,-2.92691 -15.714119,-3.67467 -25.741698,-7.49042 -26.573753,-10.11199 -1.4537637,-4.5804 0.911407,-5.24724 12.124891,-3.41846 12.093292,1.97226 37.87618,1.84055 48.257708,-0.24653 3.941925,-0.79247 17.573385,-1.87411 30.292135,-2.40362 18.22597,-0.7588 24.97869,-1.53778 31.875,-3.67702 14.19719,-4.40395 51.55749,-16.32673 64.375,-20.54398 7.6695,-2.52344 13.4244,-5.2864 16.25,-7.80173 4.98132,-4.43434 30.64469,-18.73875 41.875,-23.34056 4.125,-1.6903 10.1889,-3.15454 13.47532,-3.25386 6.07258,-0.18353 41.16605,-6.8661 46.24449,-8.80597 1.5291,-0.58408 7.48388,-3.92153 13.23284,-7.41656 5.74896,-3.49501 17.28021,-8.97741 25.625,-12.1831 8.34479,-3.20569 19.9536,-7.92659 25.79735,-10.4909 5.84375,-2.5643 13.4375,-5.6754 16.875,-6.91355 6.72548,-2.42245 10.01399,-5.4184 24.10129,-21.95715 13.08076,-15.35706 23.97498,-21.30942 52.28835,-28.56924 l 5.13965,-1.31785 -0.1015,-7.01798 c -0.0855,-5.91074 0.35811,-7.39012 2.81133,-9.37662 1.60204,-1.29723 2.50035,-2.35862 1.99625,-2.35862 -0.5041,0 -0.21862,-0.84094 0.63439,-1.86874 1.24914,-1.50514 1.15732,-2.46946 -0.47195,-4.95602 -2.57094,-3.92374 -2.55365,-6.97734 0.0706,-12.48049 1.95797,-4.10591 1.95797,-4.5398 0,-6.70334 -2.71919,-3.00467 -2.67411,-8.07855 0.094,-10.58332 1.20312,-1.08867 4.71875,-3.0748 7.8125,-4.41365 7.05703,-3.054 16.97656,-11.73872 17.98164,-15.74324 0.93707,-3.73364 9.68301,-11.58281 17.87286,-16.0403 13.15424,-7.15943 40.12014,-7.54878 59.44195,-0.85825 l 10.25577,3.55125 6.05378,-6.28069 c 5.59533,-5.80506 11.92625,-14.95804 27.86221,-40.28204 3.38624,-5.3811 7.13851,-11.33478 8.33841,-13.23041 2.00047,-3.1604 2.0268,-3.95682 0.31724,-9.59117 -2.89187,-9.53098 -2.95165,-9.5698 -10.38384,-6.74579 -10.07636,3.82871 -31.06257,3.5154 -42.96021,-0.64139 -15.69049,-5.48194 -25.92049,-13.14757 -33.47516,-25.08393 -7.09355,-11.20779 -8.9637,-17.877208 -8.90325,-31.75137 0.0626,-14.37461 2.48393,-24.348604 8.19207,-33.745213 6.17055,-10.157825 18.8917,-21.857385 28.81519,-26.501143 7.33391,-3.431953 9.95842,-3.959825 22.26512,-4.478225 13.18758,-0.555505 14.51534,-0.380062 24.25738,3.20527 9.9941,3.678093 15.35885,6.706788 21.31192,12.031736 5.39198,4.823065 14.33533,17.397121 16.88132,23.73458 1.39885,3.481986 3.91705,7.832051 5.59602,9.66681 1.67898,1.834757 2.67678,3.944132 2.21735,4.6875 C 672.72835,69.391791 672.92647,70 673.62805,70 c 3.6443,0 6.15639,31.97734 3.94542,50.22298 -2.15507,17.78441 -7.45237,40.79861 -11.31357,49.15202 -1.9067,4.125 -3.88073,9.46875 -4.3867,11.875 -0.50599,2.40625 -3.87163,12.53125 -7.47921,22.5 -3.60759,9.96875 -8.11461,22.90625 -10.01563,28.75 -6.84157,21.03121 -20.24981,44.77001 -37.91491,67.12704 -2.54826,3.22507 -5.23659,9.7596 -8.38151,20.37296 -4.48757,15.1444 -4.60314,16.0287 -3.75738,28.75 0.47994,7.21875 1.89768,16.21875 3.15053,20 3.01996,9.11455 5.54201,39.9741 4.49308,54.97691 -0.69647,9.9616 -1.52251,13.3222 -5.07532,20.64809 -2.3339,4.8125 -5.47329,13.25 -6.9764,18.75 -6.72074,24.59162 -7.64391,27.05058 -13.23964,35.26495 -3.17906,4.66678 -7.30511,10.73505 -9.16899,13.48505 -7.36365,10.8645 -16.11863,28.0207 -19.395,38.00629 -3.38985,10.33147 -3.41322,10.61408 -1.40501,16.98486 3.08068,9.77304 2.65018,20.56273 -1.2049,30.1989 -2.4211,6.0518 -3.03455,9.24938 -2.41157,12.57015 0.8235,4.38963 1.83391,5.5603 13.3152,15.42713 3.17985,2.73271 8.33477,8.77408 11.4554,13.4253 12.76481,19.02562 16.32341,33.01973 16.43683,64.63737 l 0.0762,21.25 -4.26061,7.82611 c -3.74664,6.88203 -4.38562,9.42799 -5.29696,21.10486 -0.94884,12.15747 -0.81223,13.766 1.6178,19.04889 1.86824,4.06158 2.81325,9.10133 3.19146,17.02014 0.34299,7.18139 1.41179,13.36811 2.95531,17.10672 1.61608,3.91437 2.418,8.80914 2.418,14.75898 0,7.00471 1.9429,20.0093 2.98942,20.0093 0.97943,0 20.50355,-7.96339 24.1561,-9.85268 4.37935,-2.2652 42.25511,-40.01378 51.13182,-50.96013 3.06528,-3.77995 4.05825,-6.42099 4.62916,-12.31219 1.2957,-13.37014 5.10484,-27.0617 8.58586,-30.86094 2.72528,-2.97446 4.20151,-3.51406 9.61366,-3.51406 l 6.39396,0 0,-4.84735 c 0,-2.66604 -0.87712,-6.9466 -1.94917,-9.51236 -1.40989,-3.37434 -1.89043,-8.34485 -1.73683,-17.96516 0.24312,-15.22765 1.50867,-19.89475 5.6785,-20.94132 1.60933,-0.40391 17.42874,-0.38346 35.15426,0.0454 17.72554,0.4289 43.47824,1.00258 57.22824,1.27487 29.01526,0.57457 36.15704,1.15825 55.36574,4.52496 22.46421,3.93731 36.50926,10.75468 36.50926,17.72137 0,4.15831 -5.06559,13.52513 -8.75,16.17972 -2.17367,1.56611 -8.07186,2.82365 -19.375,4.1309 -13.98496,1.61742 -27.05741,4.23103 -37.8125,7.55998 -1.54687,0.47878 -2.81461,1.50805 -2.81719,2.28723 -0.003,0.77919 -2.59492,2.48208 -5.76076,3.78419 -5.44114,2.238 -25.48455,17.68858 -25.48455,19.64497 0,0.50173 4.07812,1.83963 9.0625,2.97311 25.756,5.85707 49.87702,21.48442 58.98161,38.21256 2.9593,5.43721 3.3146,7.17605 2.61487,12.79706 -1.17612,9.44777 -2.81704,12.80293 -8.02761,16.41385 -5.46116,3.78458 -11.75772,4.14278 -25.49657,1.45042 -10.24119,-2.00693 -18.13449,-3.01864 -30.80654,-3.94857 -10.06693,-0.73875 -19.84103,1.64794 -37.50642,9.15847 -7.06685,3.0045 -10.71455,4.00258 -11.04168,3.02122 -0.55527,-1.66584 -4.03016,-2.02136 -4.03016,-0.41234 0,0.57924 -2.01402,2.12611 -4.47563,3.4375 -4.63854,2.47114 -17.38788,14.48639 -19.44123,18.32184 -2.17155,4.05625 -5.31155,2.54256 -12.06993,-5.8185 -2.05651,-2.5442 -7.26847,-2.58624 -8.23542,-0.0664 -1.08785,2.83488 -10.63285,6.76336 -16.50967,6.79496 L 666.66125,860 652.82109,878.48639 c -7.61209,10.16751 -16.34406,21.27689 -19.40438,24.6875 -6.94623,7.74132 -18.3196,23.98002 -27.10572,38.70111 -9.1139,15.2703 -27.19226,33.29493 -39.3408,39.22389 -5.96069,2.90903 -11.08495,4.41895 -16.46155,4.85054 -7.34275,0.5894 -8.3885,0.31438 -17.59519,-4.62719 -5.38365,-2.88961 -11.76949,-7.17056 -14.19075,-9.51324 -4.2007,-4.06434 -4.47134,-4.14886 -5.9097,-1.84569 -2.8821,4.61499 -14.88457,12.49064 -25.64972,16.83055 -20.50594,8.26687 -33.30063,10.04073 -44.30732,6.14278 z" id="path3426" inkscape:connector-curvature="0"/>
    <path style="fill:#6cb5ea" d="m 442.85596,992.93664 c -6.17775,-2.18782 -17.10571,-13.43618 -20.4617,-21.06164 -1.21029,-2.75 -2.84816,-8.65625 -3.63974,-13.125 -0.79157,-4.46875 -2.86301,-10.65625 -4.60318,-13.75 -1.74019,-3.09375 -4.23047,-10.02244 -5.53395,-15.39709 -1.30349,-5.37465 -3.05135,-10.99965 -3.88415,-12.5 -0.94728,-1.7066 -1.58003,-9.04584 -1.69005,-19.60291 -0.19254,-18.47381 -1.95897,-38.41056 -4.8025,-54.20348 -6.99749,-38.8639 -8.6335,-47.73672 -10.749,-58.29652 -5.51884,-27.54805 -6.58748,-47.00439 -3.2711,-59.55543 1.11617,-4.22423 2.02941,-11.01392 2.02941,-15.08818 0,-10.6711 3.99369,-27.80892 9.88629,-42.42434 2.81253,-6.97594 5.11371,-13.35385 5.11371,-14.17313 0,-0.81928 -1.11021,-2.90101 -2.46715,-4.62607 -5.06455,-6.43854 -4.40975,-17.50473 1.50954,-25.511 2.74475,-3.71246 2.76068,-2.39853 -0.3016,-24.87185 -2.94949,-21.64558 0.0267,-79.19646 4.9142,-95.02603 2.54705,-8.24938 6.36708,-27.13833 8.76462,-43.33841 2.17328,-14.6848 1.27015,-40.86246 -1.5055,-43.63811 -0.3594,-0.3594 -5.63397,1.84606 -11.72127,4.90102 -11.30584,5.67393 -31.73399,12.29378 -52.9379,17.15482 -6.52854,1.49668 -14.96604,4.2743 -18.75,6.1725 -3.78397,1.89818 -10.53619,4.72171 -15.00494,6.2745 -17.45188,6.06411 -24.49798,9.11931 -27.5,11.92403 -3.40825,3.18427 -17.01804,7.50109 -37.42155,11.86959 -11.06838,2.36979 -13.54114,2.53853 -17.59513,1.20059 -2.59428,-0.8562 -5.30903,-1.19074 -6.03278,-0.74344 -1.70993,1.0568 -34.87859,4.09725 -56.45054,5.17463 -26.42663,1.31983 -37.1647,3.26037 -43.78234,7.91218 -9.57077,6.72769 -27.751999,9.09999 -44.34266,5.78588 -3.330896,-0.66538 -5.421421,0.58507 -18.705304,11.18857 -8.225417,6.56573 -15.959792,11.93768 -17.1875,11.93768 -4.641874,0 -2.232549,-5.33421 6.617459,-14.65098 4.86731,-5.12401 8.664185,-9.49537 8.4375,-9.71413 -0.392911,-0.37919 -5.852926,0.94626 -27.618276,6.7045 -5.338368,1.41232 -10.541493,2.2473 -11.5625,1.8555 -4.53065,-1.73858 -1.173458,-4.63117 13.143621,-11.32467 8.25,-3.85703 15,-7.35357 15,-7.7701 0,-0.41651 -1.265625,-1.33315 -2.8125,-2.03696 -1.546875,-0.70381 -2.689191,-1.91025 -2.538481,-2.68096 0.15071,-0.77073 -2.66179,-2.08784 -6.25,-2.92691 -15.714119,-3.67467 -25.741698,-7.49042 -26.573753,-10.11199 -1.5576725,-4.90779 0.940136,-5.38661 15.729555,-3.0153 15.146587,2.42859 30.275246,2.02393 49.320179,-1.3192 5.5,-0.96546 17.03125,-1.78969 25.625,-1.8316 8.59375,-0.0419 18.15625,-0.56071 21.25,-1.15286 10.22524,-1.95712 30.47744,-7.66994 40,-11.28336 5.15625,-1.95659 17.75311,-6.20483 27.99302,-9.44055 14.23119,-4.49693 19.67998,-6.83097 23.125,-9.9058 8.482,-7.57057 48.31063,-27.86102 51.9487,-26.46495 1.90787,0.73211 25.81988,-3.23162 40.46539,-6.70765 7.52299,-1.78556 13.58523,-4.35684 21.875,-9.27825 6.30734,-3.74449 18.78039,-9.68973 27.71789,-13.21166 8.9375,-3.52191 21.43589,-8.59987 27.7742,-11.28437 6.3383,-2.68449 13.02053,-5.25645 14.84938,-5.71546 3.86388,-0.96978 10.13622,-6.98215 22.37642,-21.44906 12.46686,-14.7348 24.42185,-21.74229 46.25,-27.1097 l 11.25,-2.7663 0.0884,-7.26059 c 0.073,-5.99704 0.58652,-7.66399 2.95098,-9.57861 1.57446,-1.27492 2.45021,-2.31803 1.94611,-2.31803 -0.5041,0 -0.21862,-0.84094 0.63439,-1.86874 1.24914,-1.50513 1.15731,-2.46946 -0.47195,-4.95602 -2.57094,-3.92374 -2.55365,-6.97734 0.0706,-12.48049 1.95798,-4.10591 1.95798,-4.5398 0,-6.70334 -4.95352,-5.47357 -1.60623,-11.04248 9.39354,-15.6281 5.42781,-2.26277 16.01294,-11.65411 16.01294,-14.20704 0,-2.77441 11.20892,-13.18012 18.125,-16.82618 13.86639,-7.31018 40.34681,-7.71493 59.70784,-0.91265 l 10.29216,3.61603 6.25,-6.62026 c 6.56484,-6.95375 12.59584,-15.59127 25.78347,-36.92679 4.38159,-7.08872 8.94825,-14.44866 10.14815,-16.35542 2.00034,-3.17875 2.02671,-3.97742 0.31724,-9.61141 -2.89187,-9.53098 -2.95165,-9.5698 -10.38384,-6.74579 -10.07636,3.82871 -31.06257,3.5154 -42.96021,-0.64139 -15.69049,-5.48193 -25.92049,-13.14757 -33.47516,-25.08393 -6.87851,-10.86802 -8.9457,-17.938135 -8.91186,-30.480044 0.037,-13.701801 1.78338,-22.71614 6.06356,-31.297621 4.34279,-8.707031 18.3365,-23.558281 26.26304,-27.872441 22.4679,-12.2285601 54.13726,-8.354916 72.54421,8.873256 6.84285,6.404646 14.75795,17.355275 17.10536,23.66546 1.2149,3.26585 3.641,7.478918 5.39135,9.362371 1.75034,1.883454 2.80034,3.806557 2.33334,4.27356 -0.46701,0.467005 0.0214,1.811028 1.08541,2.986717 3.18032,3.514208 4.98932,31.246282 3.13537,48.065262 -2.04418,18.54456 -7.09212,40.86107 -11.30989,50 -1.90375,4.125 -3.87536,9.46875 -4.38134,11.875 -0.50599,2.40625 -3.87163,12.53125 -7.47921,22.5 -3.60759,9.96875 -8.11461,22.90625 -10.01563,28.75 -6.84157,21.03121 -20.24981,44.77001 -37.91491,67.12704 -2.54756,3.2242 -5.23518,9.75563 -8.37445,20.3516 -4.51809,15.2499 -4.60279,15.91583 -3.73579,29.375 0.48791,7.57425 1.6509,15.6062 2.5844,17.84877 2.98056,7.16028 4.75113,24.0609 4.8213,46.02095 0.0674,21.10394 0.0275,21.42596 -3.48939,28.125 -4.44935,8.47524 -9.0722,21.75519 -11.33731,32.56839 -2.29651,10.96302 -5.74537,18.26076 -14.26127,30.17654 -3.87527,5.42242 -8.14142,11.92282 -9.48033,14.44534 -1.33891,2.52249 -4.34552,7.84174 -6.68135,11.82053 C 552.23087,537.64686 545,557.01989 545,561.1949 c 0,1.23739 0.90815,4.42329 2.0181,7.07979 2.78435,6.66389 1.85345,21.62733 -1.81333,29.1476 -1.48762,3.05101 -2.70267,7.26976 -2.70009,9.375 0.006,4.93206 3.92837,11.32952 8.37755,13.664 7.06671,3.7079 17.11956,16.48534 24.20373,30.76359 6.53796,13.17732 8.96644,26.63853 9.13758,50.65012 l 0.15146,21.25 -4.26522,8.6399 c -3.49742,7.08459 -4.45314,10.7974 -5.30914,20.625 -1.12095,12.86933 -0.58555,17.75014 2.45637,22.39269 1.22012,1.86213 2.24972,7.61167 2.80133,15.64333 0.47969,6.98449 1.76311,14.94908 2.85205,17.69908 1.09596,2.76774 2.01769,8.90646 2.06456,13.75 0.0765,7.91029 1.5129,17.52951 2.81138,18.828 0.62695,0.62695 17.9519,-5.99151 24.35918,-9.30567 4.37189,-2.26135 41.9986,-39.7561 51.29199,-51.11212 3.24685,-3.96747 4.0625,-6.09417 4.0625,-10.59252 0,-3.0956 0.77319,-7.81981 1.71819,-10.49824 0.94501,-2.67844 2.10888,-7.71055 2.5864,-11.18249 0.49321,-3.58611 2.0879,-7.84225 3.69212,-9.85415 2.35585,-2.95451 3.99904,-3.63897 9.9136,-4.12945 l 7.08969,-0.58794 0,-4.69256 c 0,-2.5809 -0.89016,-6.82301 -1.97814,-9.4269 -1.4598,-3.49379 -1.9037,-8.20122 -1.69409,-17.96515 0.32758,-15.25835 1.56159,-19.84217 5.61567,-20.85969 1.58233,-0.39713 17.1205,-0.37918 34.52926,0.0399 17.40876,0.41906 44.0273,1.01477 59.1523,1.32379 39.38266,0.8046 64.77154,4.65103 80.13069,12.13986 9.78633,4.77164 11.55461,7.53216 9.40997,14.69031 -3.32001,11.08124 -8.20975,13.73434 -28.91566,15.68924 -15.5541,1.4685 -38.75,7.207 -38.75,9.58647 0,0.53452 -2.45628,2.09079 -5.45839,3.45842 -5.73226,2.61136 -25.79161,18.31232 -25.79161,20.18776 0,0.59979 1.54687,1.43311 3.4375,1.85185 25.61632,5.67344 43.07375,14.47438 56.11196,28.28813 9.26219,9.81313 12.09548,15.92818 11.09793,23.95255 -1.17759,9.47271 -2.83289,12.75528 -8.23471,16.33005 -5.36574,3.55087 -12.48059,4.14706 -22.34928,1.87275 -7.18716,-1.65633 -21.8601,-3.55344 -34.17909,-4.41913 -8.64902,-0.60779 -11.10063,-0.23819 -21.875,3.29787 -6.67387,2.19032 -15.19715,5.42102 -18.94061,7.17934 -4.60552,2.16325 -6.96324,2.72614 -7.29166,1.74085 -0.73451,-2.20352 -3.3749,-1.74857 -5.87316,1.01198 -1.22848,1.35745 -3.2019,2.77542 -4.3854,3.15105 -1.86235,0.59108 -13.74775,11.80804 -18.50527,17.46452 -2.69916,3.20919 -4.53831,2.21364 -11.25,-6.08966 -2.05651,-2.5442 -7.26847,-2.58624 -8.23542,-0.0664 -1.08785,2.83488 -10.63285,6.76336 -16.50966,6.79496 L 666.66125,860 652.82109,878.48639 c -7.61209,10.16751 -16.34406,21.27689 -19.40438,24.6875 -6.94623,7.74132 -18.3196,23.98002 -27.10572,38.70111 -9.1139,15.2703 -27.19226,33.29493 -39.3408,39.22389 -5.96069,2.90903 -11.08495,4.41895 -16.46155,4.85054 -7.34275,0.5894 -8.3885,0.31438 -17.59519,-4.62719 -5.38365,-2.88961 -11.76949,-7.17056 -14.19075,-9.51324 -4.2007,-4.06434 -4.47134,-4.14886 -5.9097,-1.84569 -2.8821,4.61499 -14.88457,12.49064 -25.64972,16.83055 -20.50594,8.26687 -33.30063,10.04073 -44.30732,6.14278 z" id="path3424" inkscape:connector-curvature="0"/>
    <path style="fill:#4eaef3" d="m 442.5,992.33924 c -11.96711,-5.28504 -20.37968,-16.99579 -23.28865,-32.41914 -1.14681,-6.08041 -3.24965,-12.4066 -5.09637,-15.33201 -1.72919,-2.7392 -4.16982,-9.25149 -5.42361,-14.47174 -1.25379,-5.22024 -3.20726,-11.69631 -4.34103,-14.39127 -1.59582,-3.79324 -1.8674,-6.83173 -1.20244,-13.45311 1.53114,-15.24646 -3.47704,-55.04833 -13.1046,-104.14697 -8.02852,-40.94394 -9.51204,-59.78486 -5.75778,-73.125 1.06414,-3.78125 1.94148,-10.28969 1.94964,-14.46319 0.0213,-10.87115 3.98706,-27.93612 9.90113,-42.60476 2.81253,-6.97594 5.11371,-13.32472 5.11371,-14.10841 0,-0.78368 -1.16695,-3.00325 -2.59321,-4.93238 -4.61262,-6.2389 -4.57093,-12.82717 0.1399,-22.10824 l 4.13524,-8.14707 -1.51804,-9.63048 C 399.5251,597.023 397.5439,570.44194 398.22712,566.25 c 0.28014,-1.71875 1.33181,-14.65885 2.33704,-28.75577 1.26304,-17.71229 2.60218,-28.13917 4.33456,-33.75 2.55255,-8.26717 6.3715,-27.14611 8.77089,-43.35867 2.14683,-14.50606 1.27355,-40.85907 -1.44402,-43.57664 -0.32559,-0.32558 -5.9665,1.9025 -12.53537,4.95133 -13.21771,6.13476 -32.85777,12.76839 -43.44022,14.67237 -10.0048,1.80005 -20.54109,5.24308 -31.63175,10.33653 -5.36621,2.46446 -10.3002,4.48085 -10.96441,4.48085 -2.79642,0 -24.4895,9.16701 -26.83845,11.34132 -3.40744,3.1541 -12.71408,6.25093 -33.62298,11.1882 -15.09566,3.56458 -17.85232,3.89367 -21.51669,2.56862 -3.08208,-1.1145 -5.94917,-1.18159 -10.75177,-0.25161 -6.52473,1.26345 -24.37358,2.7806 -60.63416,5.15391 -22.98135,1.50416 -28.47498,2.63177 -35.52022,7.29082 -2.96701,1.9621 -8.20707,4.34799 -11.64457,5.30197 -6.79507,1.88577 -23.245729,2.223 -31.290848,0.64143 -4.582191,-0.9008 -5.502882,-0.60966 -10.118838,3.19969 -13.744215,11.34251 -24.571993,19.19065 -26.476625,19.19065 -4.529112,0 -3.008939,-5.14915 3.177818,-10.76395 3.324694,-3.01733 7.375442,-7.37885 9.001662,-9.69229 2.666742,-3.79365 2.723808,-4.13532 0.581796,-3.48334 -1.306231,0.39759 -4.906215,1.29558 -7.999965,1.99553 -3.09375,0.69995 -9.28125,2.40379 -13.75,3.7863 -18.350343,5.67709 -23.95639,1.54147 -7.8125,-5.76334 13.362285,-6.04617 20.3125,-9.67945 20.3125,-10.61847 0,-0.43663 -1.184262,-1.10355 -2.631695,-1.48207 -1.452651,-0.37987 -2.385073,-1.42522 -2.081219,-2.33328 0.390068,-1.16572 -3.84282,-2.84703 -14.526122,-5.7698 C 14.71422,468.70214 10,466.3202 10,462.89204 c 0,-3.00945 3.440435,-3.22 16.570186,-1.01407 14.088674,2.36706 30.40792,1.91707 48.973773,-1.35037 5.544572,-0.9758 17.393541,-1.79945 26.331041,-1.83032 8.9375,-0.0309 18.5,-0.55472 21.25,-1.16408 12.2328,-2.71059 30.76815,-8.02627 39.375,-11.29222 5.15625,-1.95659 17.75311,-6.20483 27.99302,-9.44055 14.23119,-4.49693 19.67998,-6.83097 23.125,-9.9058 8.482,-7.57057 48.31063,-27.86102 51.9487,-26.46495 1.90787,0.73211 25.81988,-3.23162 40.46539,-6.70765 7.52299,-1.78556 13.58523,-4.35684 21.875,-9.27825 6.30734,-3.74449 18.78039,-9.68943 27.71789,-13.21098 8.9375,-3.52155 20.75,-8.27596 26.25,-10.56536 5.5,-2.2894 12.23449,-4.92301 14.96554,-5.85249 5.57248,-1.89651 11.00985,-6.93319 23.78446,-22.03172 12.50035,-14.77439 27.8289,-23.50758 48.75,-27.77453 9.2421,-1.88496 11.04332,-3.14141 9.26551,-6.46327 -1.67972,-3.13859 -0.30437,-9.38157 2.73677,-12.42271 1.30499,-1.305 2.38811,-2.64807 2.40692,-2.9846 0.0188,-0.33653 0.35023,-1.43545 0.73649,-2.44202 0.38626,-1.00659 -0.19163,-3.1064 -1.2842,-4.66626 -2.52639,-3.60693 -2.50326,-6.11134 0.107,-11.58509 1.95797,-4.10591 1.95797,-4.5398 0,-6.70334 -4.95353,-5.47357 -1.60624,-11.04249 9.39354,-15.6281 5.42784,-2.26277 16.01297,-11.65411 16.01297,-14.20704 0,-2.77021 11.20226,-13.1756 18.125,-16.83567 3.4375,-1.81742 10.32682,-3.9774 15.30961,-4.79995 14.52198,-2.39728 38.59159,0.37179 48.59921,5.59105 1.97515,1.0301 4.23787,1.87636 5.02825,1.8806 4.44022,0.0238 25.52143,-29.30514 43.3759,-60.34609 2.27322,-3.95211 2.26559,-4.14664 -0.444,-11.32011 -2.9748,-7.87564 -2.41796,-7.68384 -11.86897,-4.08813 -3.23561,1.23102 -9.47479,1.92165 -17.68083,1.95717 -25.09275,0.1085 -44.11872,-9.48561 -56.40459,-28.44297 C 545.98574,101.00368 543.75,93.353009 543.75,80.568735 c 0,-13.19894 1.67797,-21.782574 5.94265,-30.399421 4.34884,-8.786904 18.32939,-23.695446 26.27674,-28.02094 22.6989,-12.3542896 54.36461,-8.333784 72.8495,9.249496 6.81236,6.480084 12.14171,13.903525 15.74539,21.932263 1.80085,4.012177 4.70396,8.835875 6.45137,10.719328 1.7474,1.883454 2.795,3.806557 2.328,4.27356 -0.46701,0.467005 0.0272,1.817526 1.09849,3.001159 3.12454,3.452586 4.9807,32.42095 3.07887,48.05082 -2.16866,17.82275 -8.14366,43.92751 -11.73038,51.25 -1.68377,3.4375 -4.76794,11.59375 -6.85372,18.125 -19.52568,61.14129 -28.71922,80.87281 -50.08576,107.49604 -3.50469,4.36692 -6.97886,10.23241 -7.72039,13.03441 -0.74152,2.802 -2.56492,8.7508 -4.052,13.21955 -3.71648,11.16832 -3.59543,34.16481 0.24532,46.59971 1.63446,5.29176 3.15872,15.55505 4.082,27.48531 1.81097,23.40084 0.48967,37.7905 -4.31352,46.97644 -3.55291,6.79481 -9.00218,23.0751 -10.31378,30.81354 -1.45417,8.57954 -6.42644,18.77024 -14.88324,30.50325 -4.48005,6.21564 -8.14554,11.57257 -8.14554,11.90431 0,0.33173 -2.72191,5.33341 -6.04871,11.11485 -5.53218,9.61407 -12.72035,28.5718 -12.70685,33.51244 0.002,1.11916 0.91371,4.20834 2.02366,6.86484 2.78435,6.66389 1.85345,21.62733 -1.81333,29.1476 -1.48762,3.05101 -2.70267,7.26976 -2.70009,9.375 0.006,4.93206 3.92837,11.32952 8.37755,13.664 7.06671,3.7079 17.11956,16.48534 24.20373,30.76359 6.53796,13.17732 8.96644,26.63853 9.13758,50.65012 l 0.15146,21.25 -4.26522,8.6399 c -3.49742,7.08459 -4.45314,10.7974 -5.30914,20.625 -1.12095,12.86933 -0.58555,17.75014 2.45637,22.39269 1.25099,1.90925 2.19245,7.40845 2.67817,15.64333 0.41242,6.99249 1.51608,14.07218 2.45601,15.7547 0.93885,1.68059 2.14362,9.27434 2.67727,16.875 0.53365,7.60065 1.36568,14.82052 1.84894,16.04413 1.04354,2.64221 1.81646,2.45405 17.4576,-4.24996 11.13483,-4.77255 11.47394,-5.05107 33.125,-27.20505 29.0475,-29.72224 30.3213,-31.32399 30.18785,-37.95983 -0.0588,-2.92045 0.67195,-7.84116 1.62374,-10.93491 0.95179,-3.09375 2.11016,-7.875 2.57415,-10.625 1.70681,-10.11589 6.35053,-14.375 15.67307,-14.375 4.90467,0 4.94119,-0.0358 4.94119,-4.84284 0,-2.66356 -0.8893,-7.30419 -1.97621,-10.3125 -1.52891,-4.23164 -1.83353,-8.58187 -1.3458,-19.21966 0.72715,-15.85999 1.28873,-17.88079 5.24508,-18.87376 1.59354,-0.39995 17.14087,-0.37693 34.54963,0.0511 17.40876,0.42808 44.0273,1.02519 59.1523,1.3269 39.38007,0.78555 64.75564,4.62379 80.13069,12.12036 9.78633,4.77164 11.55461,7.53217 9.40997,14.69032 -3.32001,11.08123 -8.20975,13.73433 -28.91566,15.68923 -15.47003,1.46057 -38.75,7.1155 -38.75,9.41275 0,0.60008 -2.39063,2.15694 -5.3125,3.45969 -5.562,2.47988 -25.9375,18.47406 -25.9375,20.3602 0,0.59979 1.54687,1.44121 3.4375,1.86985 19.38659,4.39519 26.66042,7.1331 39.0625,14.70329 10.46261,6.38635 20.39439,15.9589 25.15997,24.24994 3.43264,5.97202 3.69272,7.2043 2.90192,13.75 -1.05133,8.70223 -3.14384,12.58662 -8.76562,16.27178 -4.7383,3.10603 -12.34588,3.61377 -21.73287,1.45047 -7.18716,-1.65633 -21.8601,-3.55344 -34.17909,-4.41913 -8.64902,-0.60779 -11.10063,-0.23819 -21.875,3.29788 -6.67387,2.19031 -15.19715,5.42101 -18.94061,7.17933 -4.60553,2.16325 -6.96324,2.72614 -7.29166,1.74085 -0.73735,-2.21206 -3.37814,-1.745 -5.90204,1.04389 -1.24436,1.375 -2.90909,2.5 -3.69939,2.5 -1.64107,4e-5 -18.17561,15.87229 -18.17561,17.44764 0,1.81975 -3.8499,2.58689 -6.32761,1.26086 -1.31809,-0.70541 -3.26053,-2.9534 -4.31655,-4.99551 -1.45185,-2.80758 -2.79402,-3.71295 -5.5042,-3.71295 -2.0604,0 -3.89545,0.81119 -4.31635,1.90804 C 687.24013,855.88169 676.91977,860 671.13955,860 c -4.61906,0 -5.24682,0.48207 -10.83386,8.31964 -3.26188,4.57578 -11.55569,15.30672 -18.43069,23.84652 -17.29511,21.48314 -27.15896,35.17453 -35.36208,49.08384 -4.95465,8.40118 -10.31405,15.18075 -18.32065,23.17545 -11.57065,11.55344 -18.33703,16.1852 -28.9047,19.78596 -10.38485,3.53848 -16.18433,2.77135 -27.44283,-3.62997 -5.48337,-3.11772 -11.5385,-7.22854 -13.45588,-9.13519 l -3.48615,-3.46661 -5.05881,4.81233 c -6.7688,6.439 -12.25844,9.71934 -24.33498,14.54142 -20.4911,8.18192 -32.62052,9.59367 -43.00892,5.00585 z" id="path3422" inkscape:connector-curvature="0"/>
    <path style="fill:#2fa5f9" d="m 442.5,992.33924 c -12.01133,-5.30457 -20.26238,-16.83254 -23.20534,-32.4214 -1.27571,-6.75745 -3.30165,-12.68143 -5.6425,-16.49912 C 411.64347,940.14276 410,936.35262 410,934.99616 c 0,-1.35645 -1.72402,-7.84834 -3.83117,-14.42641 -3.21495,-10.03641 -3.69218,-13.07267 -2.96698,-18.87694 1.76755,-14.14698 -5.61997,-69.13676 -15.7609,-117.31781 -5.3235,-25.29276 -6.4877,-47.33896 -3.13544,-59.375 1.05315,-3.78125 1.92149,-10.28969 1.92965,-14.46319 0.0211,-10.79753 3.99854,-27.85978 9.92013,-42.55505 2.8021,-6.95379 5.09471,-13.3357 5.09471,-14.18204 0,-0.84633 -1.26563,-3.31313 -2.8125,-5.48176 -4.10955,-5.76136 -3.75113,-14.55342 0.93276,-22.8799 3.61265,-6.42219 3.61742,-6.45946 2.07328,-16.25 -1.93175,-12.24816 -3.90438,-38.76216 -3.19458,-42.93806 0.29215,-1.71875 1.33913,-14.65625 2.32663,-28.75 1.28375,-18.32203 2.52905,-27.94058 4.36958,-33.75 3.96618,-12.51879 8.87184,-40.42779 9.67668,-55.05198 0.73286,-13.31637 -0.20904,-28.10302 -1.97182,-30.95528 -0.71293,-1.15353 -4.0454,-0.12 -12.9728,4.02355 -13.58808,6.30665 -32.63828,12.48503 -48.61266,15.76611 -5.94572,1.22122 -16.04477,4.57732 -22.44232,7.45797 -6.39755,2.88067 -14.75161,6.27877 -18.56458,7.55132 -15.36348,5.12747 -20.27575,7.22738 -23.08873,9.87006 -3.50523,3.29299 -15.88767,7.37022 -36.14078,11.9003 -12.45376,2.78557 -15.48539,3.08242 -19.14509,1.87461 -2.39152,-0.78927 -5.5767,-1.08999 -7.07815,-0.66825 -3.92381,1.10214 -38.57883,4.15066 -58.35492,5.13334 -23.7327,1.17929 -35.47023,3.37846 -41.76593,7.8254 -2.80999,1.98481 -7.92157,4.39441 -11.35907,5.35467 -6.78493,1.89534 -23.225625,2.23835 -31.290848,0.65284 -4.582191,-0.9008 -5.502882,-0.60966 -10.118838,3.19969 -13.744215,11.34251 -24.571993,19.19065 -26.476625,19.19065 -4.529112,0 -3.008939,-5.14915 3.177818,-10.76395 3.324694,-3.01733 7.375442,-7.37885 9.001662,-9.69229 2.668981,-3.79683 2.725607,-4.13718 0.581796,-3.49685 -1.306231,0.39015 -4.062465,1.0705 -6.124965,1.51189 -2.0625,0.44139 -8.436879,2.18779 -14.165285,3.8809 -18.022608,5.3268 -25.580492,2.01436 -10.631263,-4.65944 23.263429,-10.38551 24.608599,-11.30461 19.102739,-13.0521 -1.412845,-0.44842 -2.351241,-1.46801 -2.085325,-2.26576 0.302355,-0.90706 -4.847772,-2.93696 -13.747062,-5.41832 C 15.317761,468.728 10,466.15072 10,463.05695 c 0,-3.18446 3.262189,-3.41515 16.570186,-1.17176 14.211102,2.39561 30.027855,1.97655 48.571719,-1.2869 5.765702,-1.01468 17.795595,-1.87014 26.733095,-1.90101 8.9375,-0.0309 18.5,-0.55472 21.25,-1.16408 12.19182,-2.7015 30.76112,-8.02291 39.375,-11.28371 5.15625,-1.9519 17.60794,-6.12307 27.67041,-9.26926 14.57194,-4.55614 19.4514,-6.67559 23.97541,-10.41402 5.63025,-4.65257 13.51704,-9.12849 35.22918,-19.99327 8.59737,-4.30214 13.01841,-5.7505 18.75,-6.14263 12.27444,-0.83975 44.57041,-7.77106 50.625,-10.86505 3.09375,-1.58095 10.40625,-5.46469 16.25,-8.63052 9.40872,-5.09717 34.0736,-15.53549 57.32304,-24.25948 11.38271,-4.27119 11.96758,-4.67801 19.08225,-13.27309 20.67594,-24.9782 31.98007,-32.561 56.71971,-38.04745 10.70585,-2.37422 12.31805,-3.44123 10.4561,-6.92031 -1.53591,-2.86987 0.56637,-12.18441 2.75001,-12.18441 0.67693,0 1.81837,-1.5455 2.53654,-3.43445 1.01277,-2.6638 0.86559,-4.17963 -0.65594,-6.75536 -2.47914,-4.19685 -2.46794,-6.4554 0.0563,-11.33657 1.85723,-3.59147 1.85723,-4.17426 0,-7.31828 -1.1099,-1.87884 -2.01796,-4.5566 -2.01796,-5.95059 0,-2.39833 5.84587,-7.70475 8.48802,-7.70475 3.17942,0 16.39785,-10.35978 18.28046,-14.32707 5.38963,-11.35781 19.22163,-20.73914 34.16613,-23.17262 14.71725,-2.39647 36.55819,0.16095 48.6293,5.69415 2.1664,0.99305 4.50059,1.80554 5.18708,1.80554 4.30191,0 25.74837,-29.96743 43.18699,-60.34578 2.2733,-3.96013 2.26568,-4.15437 -0.44401,-11.32812 -2.97479,-7.87564 -2.41796,-7.68384 -11.86897,-4.08813 -6.92791,2.63579 -28.0769,2.63378 -36.96062,-0.004 -16.56573,-4.91781 -28.8171,-13.66318 -37.14669,-26.51631 -7.79767,-12.032302 -9.47544,-18.997216 -8.71689,-36.186143 0.59741,-13.537787 0.86854,-14.693989 5.76088,-24.567128 3.96841,-8.008604 7.12485,-12.238868 13.90351,-18.633513 C 577.15812,19.399972 588.19244,15 606.55205,15 c 24.8764,0 47.60748,15.117319 58.17739,38.690889 1.71,3.813761 4.46635,8.399493 6.1252,10.190517 1.65885,1.791023 2.86942,3.759773 2.69016,4.375 -0.17926,0.615227 0.42688,2.47952 1.34696,4.142875 2.82263,5.10282 4.36497,32.652119 2.6299,46.975719 -2.26385,18.68895 -7.15581,40.22417 -11.21608,49.375 -1.98282,4.46875 -5.29765,13.46875 -7.3663,20 -18.53762,58.52789 -28.38689,79.95344 -48.26824,105 -8.43562,10.62721 -7.71907,9.16674 -12.7436,25.97397 -4.20176,14.05509 -4.34904,15.21032 -3.62066,28.40103 0.44206,8.00553 1.77236,17.00401 3.18421,21.53881 1.45075,4.65974 3.01326,15.45648 3.88937,26.875 1.9398,25.28169 0.64004,36.94246 -5.54349,49.73328 -2.48683,5.1441 -5.96237,15.25916 -7.72341,22.47791 -4.24772,17.41199 -5.83907,20.96074 -15.85416,35.3553 -4.68011,6.72666 -8.5093,12.46657 -8.5093,12.75535 0,0.28879 -2.75693,5.31615 -6.12649,11.17192 -3.36957,5.85579 -7.78257,15.58478 -9.80667,21.61998 l -3.68019,10.97309 2.39689,6.87468 c 3.10141,8.89536 2.51578,21.99031 -1.33815,29.92197 -4.38144,9.01728 -2.79946,18.00042 3.86306,21.93607 6.23151,3.68105 12.19099,9.52764 17.12291,16.79856 12.45956,18.36863 17.01233,33.29487 18.29479,59.97942 0.90219,18.77231 -0.48853,29.94621 -4.3865,35.24405 -3.61244,4.90975 -5.03393,11.82114 -5.39115,26.21234 -0.2765,11.13895 0.026,13.54815 2.08209,16.5832 1.7816,2.62986 2.63163,6.8449 3.27707,16.25 0.47933,6.98448 1.81461,15.17661 2.9673,18.20471 1.26506,3.32326 2.04709,8.77359 1.97289,13.75 -0.11113,7.45349 1.3617,16.89559 2.87089,18.40476 0.32303,0.32304 6.13785,-1.51234 12.9218,-4.07861 l 12.33446,-4.66596 23.4375,-23.13652 C 649.45312,796.17923 660,785.19995 660,784.50591 c 0,-0.69404 1.70516,-3.02117 3.78924,-5.1714 3.10772,-3.20635 3.85975,-5.12802 4.18126,-10.68451 0.46004,-7.9505 3.89847,-22.61325 6.6107,-28.19046 2.26315,-4.65376 6.23943,-6.70954 12.97761,-6.70954 4.83889,0 4.94119,-0.0931 4.94119,-4.49511 0,-2.47232 -0.90711,-7.61548 -2.01581,-11.42925 -1.54179,-5.30358 -1.85008,-10.0128 -1.31105,-20.02649 1.04816,-19.47236 -1.84562,-18.1699 38.30247,-17.23956 18.23216,0.42247 44.11814,0.98371 57.52439,1.24716 42.8905,0.84289 65.86636,4.17337 82.14399,11.90725 11.43315,5.43216 12.96822,7.74591 10.36743,15.62637 -3.51928,10.66355 -8.20393,13.06815 -29.38642,15.08378 -16.12393,1.53427 -38.125,6.96977 -38.125,9.41901 0,0.57191 -2.39063,2.10574 -5.3125,3.40849 -5.562,2.47987 -25.9375,18.47406 -25.9375,20.3602 0,0.59979 1.54687,1.40454 3.4375,1.78835 1.89062,0.3838 9.4984,2.62634 16.90616,4.98341 21.16874,6.73568 38.98579,19.54825 47.29481,34.0106 3.45528,6.01411 3.67899,7.12785 2.88747,14.375 -0.7817,7.15731 -1.34531,8.32814 -6.33892,13.16829 -5.04428,4.88927 -6.00197,5.31006 -12.02147,5.28194 -3.5973,-0.0168 -9.04326,-0.60733 -12.10215,-1.31227 -7.18716,-1.65632 -21.8601,-3.55343 -34.17909,-4.41912 -8.66369,-0.60883 -11.08236,-0.24194 -21.875,3.31819 -6.67387,2.20148 -15.05585,5.29451 -18.62661,6.8734 -5.63034,2.48956 -6.69325,2.62856 -8.00588,1.04693 -1.29981,-1.56617 -1.98145,-1.37552 -4.82611,1.34984 -1.82187,1.74548 -3.91695,3.17359 -4.6557,3.17359 -1.63376,0 -17.89501,15.7713 -17.89501,17.35584 0,0.61967 -0.70313,1.39421 -1.5625,1.72117 -2.81808,1.0722 -7.01969,-1.37666 -9.02915,-5.26252 -1.50334,-2.90714 -2.82511,-3.81449 -5.55671,-3.81449 -2.0604,0 -3.89545,0.81119 -4.31635,1.90804 C 687.24013,855.88169 676.91977,860 671.13955,860 c -4.62076,0 -5.24478,0.47995 -10.83386,8.33264 -3.26188,4.58295 -11.55569,15.29266 -18.43069,23.79937 -16.90036,20.9115 -27.00253,34.94343 -35.36208,49.11799 -9.86087,16.72023 -26.56991,33.36943 -39.79023,39.64772 -6.05167,2.87393 -12.0876,4.75918 -16.3758,5.11479 -5.988,0.49658 -7.89798,10e-4 -16.14449,-4.18415 -5.14416,-2.61105 -11.66933,-6.80289 -14.50035,-9.31521 l -5.14734,-4.56786 -4.73482,4.73482 c -6.42208,6.42208 -12.1596,9.8206 -25.44489,15.07183 -19.55153,7.72807 -31.73988,9.06327 -41.875,4.5873 z" id="path3420" inkscape:connector-curvature="0"/>
    <path style="fill:#0095fd" d="m 442.86861,992.36844 c -4.38666,-1.68639 -8.30323,-4.49983 -12.02174,-8.63569 -6.9649,-7.74665 -9.11577,-12.31219 -11.56783,-24.55448 -1.15817,-5.78228 -3.46384,-12.27271 -5.6213,-15.82383 C 411.64599,940.04314 410,936.2753 410,934.98148 c 0,-1.29384 -1.5227,-7.02209 -3.38376,-12.72946 -2.88158,-8.83692 -3.3961,-12.60323 -3.46684,-25.37702 -0.15212,-27.47035 -2.17062,-41.88791 -16.18786,-115.625 -4.43391,-23.32441 -5.55498,-38.90743 -3.56625,-49.57128 0.87736,-4.70454 2.13691,-14.45997 2.799,-21.67872 1.57093,-17.12779 3.50335,-25.27393 9.83706,-41.4683 5.88872,-15.05656 6.19715,-17.2587 2.84244,-20.29467 -4.91549,-4.44847 -4.33109,-16.64029 1.13045,-23.5835 2.6919,-3.4222 3.1,-8.56878 1.31063,-16.52853 -0.97686,-4.34546 -3.02193,-29.11276 -2.99322,-36.25 0.005,-1.375 0.39621,-7.5625 0.86817,-13.75 0.47196,-6.1875 1.3856,-18.84375 2.03033,-28.125 0.76376,-10.9948 2.22966,-20.57735 4.20686,-27.5 6.37713,-22.32795 8.94799,-40.35687 8.94799,-62.75055 0,-14.90426 -0.44179,-21.31719 -1.54449,-22.41949 -1.22577,-1.22533 -4.32122,-0.22593 -15,4.8429 -14.15943,6.72098 -33.14082,12.92977 -46.29352,15.14255 -4.3109,0.72525 -12.7484,3.36547 -18.75,5.86714 -6.00159,2.50166 -17.94324,7.09849 -26.53699,10.21515 -8.59375,3.11666 -17.10084,7.03936 -18.90465,8.71711 -3.83173,3.56395 -15.81676,7.56712 -36.51719,12.19724 -12.53012,2.80266 -15.47116,3.08711 -19.19872,1.85691 -3.25204,-1.07327 -6.24378,-1.09963 -11.45317,-0.10087 -7.63663,1.46406 -30.3359,3.3769 -55.17627,4.64961 -22.95085,1.1759 -35.5114,3.4386 -39.9852,7.20306 -5.69864,4.79508 -15.37626,7.44455 -27.462719,7.51854 -5.872395,0.0359 -12.927081,-0.37257 -15.677081,-0.90779 -4.847405,-0.94342 -5.343339,-0.70235 -16.25,7.89914 -15.73612,12.41022 -20.28022,15.42997 -21.802851,14.48894 -2.852204,-1.76275 -1.010935,-5.45642 6.034626,-12.10572 8.400332,-7.92786 11.854225,-13.00525 8.063009,-11.85301 -1.262132,0.3836 -5.107284,1.30808 -8.544784,2.05441 -3.4375,0.74633 -9.824876,2.45447 -14.194169,3.79584 C 24.945128,501.95351 20,502.01791 20,499.00881 c 0,-1.65175 3.675225,-3.87079 13.974404,-8.4375 14.307999,-6.34422 16.925698,-8.47042 12.254004,-9.95316 -1.462567,-0.4642 -2.384204,-1.56066 -2.048084,-2.43658 0.425605,-1.10911 -3.232231,-2.59982 -12.049201,-4.91053 -13.060522,-3.42285 -21.101568,-6.71474 -21.730228,-8.89604 -0.19814,-0.6875 0.130513,-2.02567 0.73034,-2.97373 0.923206,-1.45916 2.982535,-1.41961 13.41718,0.25768 19.61787,3.15342 23.042543,3.0776 51.701585,-1.14469 6.53125,-0.96224 18.625,-1.77734 26.875,-1.81134 8.25,-0.034 17.25,-0.54682 20,-1.13962 11.8848,-2.56196 29.95414,-7.71532 37.18115,-10.60405 4.30036,-1.71891 13.7251,-4.86601 20.94385,-6.99355 21.41196,-6.31063 27.84334,-8.94733 33.2722,-13.64076 6.32308,-5.46654 48.25546,-26.96554 50.7371,-26.01324 1.94754,0.74734 23.08825,-2.44659 39.1157,-5.90959 7.16687,-1.54852 13.40368,-4.08119 22.01388,-8.93949 13.17017,-7.43126 34.44415,-16.66876 67.36112,-29.24927 8.09656,-3.09441 10.31252,-4.65626 16.25,-11.45331 3.78125,-4.32867 11.09375,-12.11349 16.25,-17.29962 11.08262,-11.14682 22.61165,-17.39912 39.57366,-21.46115 12.37163,-2.96273 15.47874,-4.79882 13.05759,-7.71612 -1.74921,-2.10768 0.2699,-12.03315 2.44786,-12.03315 0.67803,0 1.80984,-1.51781 2.51515,-3.37293 0.99495,-2.61692 0.81025,-4.24962 -0.82405,-7.28433 -1.78251,-3.30993 -1.87434,-4.61469 -0.59714,-8.48467 0.83013,-2.51528 2.02549,-4.89226 2.65638,-5.28217 0.63087,-0.3899 -0.0219,-2.2899 -1.45044,-4.22221 -3.88591,-5.25598 -2.74625,-8.9145 3.87099,-12.42654 13.12056,-6.96363 18.72771,-11.40699 21.29986,-16.879 1.40308,-2.9849 4.07521,-6.8652 5.93809,-8.6229 5.55671,-5.24296 19.12031,-11.90824 27.13705,-13.33538 13.89485,-2.47356 37.1178,0.18598 48.93891,5.60459 2.1664,0.99305 4.48005,1.80554 5.14145,1.80554 3.48214,0 18.47888,-19.45088 30.35835,-39.375 3.68921,-6.1875 8.60286,-13.74104 10.91923,-16.78565 4.5784,-6.01783 4.70011,-8.90759 0.7712,-18.3108 -2.02815,-4.85406 -1.82482,-4.83048 -11.12914,-1.29058 -6.89396,2.62287 -28.06056,2.63237 -36.96062,0.0166 -9.46268,-2.78114 -22.12683,-9.65315 -27.92713,-15.15424 -6.75544,-6.40696 -14.17713,-18.27377 -16.56424,-26.48516 -1.51715,-5.218793 -1.84956,-10.266256 -1.37875,-20.935135 0.57056,-12.929341 0.98604,-14.828289 5.17336,-23.645618 7.99479,-16.834748 25.60279,-31.638808 42.1757,-35.459543 9.901,-2.282589 23.60096,-1.603032 33.14838,1.644256 11.25219,3.827116 14.91896,5.768659 21.938,11.616076 7.35766,6.129515 14.303,15.30346 18.24974,24.10569 1.71,3.813761 4.46635,8.399494 6.1252,10.190518 1.65885,1.791022 2.86942,3.759772 2.69016,4.375 -0.17926,0.615226 0.38961,2.409915 1.26418,3.988197 0.87456,1.578283 1.76617,5.797033 1.98136,9.375 0.2152,3.577968 0.81265,10.540986 1.32766,15.473375 1.70195,16.299744 -4.75617,55.307094 -11.86365,71.657024 -1.94261,4.46875 -4.94882,12.625 -6.68047,18.125 -16.57152,52.63371 -29.1651,80.9742 -45.34507,102.04403 -4.41613,5.75078 -8.90546,11.68962 -9.97628,13.19742 -2.87364,4.0463 -10.69377,31.37032 -10.84227,37.88355 -0.17982,7.88735 1.495,20.84575 3.55429,27.5 3.87169,12.51077 6.1153,41.4334 4.50893,58.125 -0.87,9.03993 -1.98207,13.09221 -5.6608,20.62752 -2.51795,5.15764 -6.1722,15.84514 -8.12054,23.75 -4.05331,16.44521 -6.4282,21.58858 -16.56766,35.88104 -4.00274,5.64221 -8.78247,13.22809 -10.62164,16.8575 -1.83916,3.62942 -4.58298,8.57557 -6.09736,10.99144 -1.51438,2.41587 -4.44183,9.455 -6.50543,15.6425 l -3.75201,11.25 2.2041,6.25 c 1.21226,3.4375 2.2477,9.10102 2.30099,12.58562 0.0967,6.3274 -2.83608,18.59974 -5.1118,21.39023 -3.02848,3.71349 0.47055,16.96979 4.87493,18.46907 4.04998,1.37864 15.0248,12.46364 19.75888,19.95723 12.284,19.44441 15.76282,33.18946 16.00146,63.22285 0.17226,21.67925 0.288,21.07299 -6.324,33.125 -1.27185,2.31826 -2.50805,9.12992 -3.23785,17.84105 -1.15275,13.75937 -1.10326,14.26324 2.10236,21.40631 2.678,5.96739 3.28289,9.19466 3.28289,17.51543 0,7.60941 0.55561,11.04804 2.1875,13.53838 1.54368,2.35571 2.30398,6.48163 2.58323,14.01853 0.48452,13.07692 1.41096,19.86553 2.83077,20.74302 0.5914,0.36551 6.85738,-1.61556 13.92439,-4.40237 l 12.84911,-5.06698 22.8125,-22.49506 C 649.73437,796.35106 660,785.43019 660,784.45474 c 0,-0.97545 1.69157,-3.0974 3.75907,-4.71546 3.30733,-2.58837 3.80995,-3.83855 4.18249,-10.40309 0.48434,-8.53474 3.83596,-23.11139 6.63964,-28.87665 2.26315,-4.65376 6.23943,-6.70954 12.97761,-6.70954 4.83889,0 4.94119,-0.0931 4.94119,-4.49511 0,-2.47232 -0.90711,-7.61548 -2.01581,-11.42925 -1.54687,-5.32105 -1.8505,-10.01839 -1.30522,-20.19239 C 690.17678,679.01638 688.28499,680 723.09286,680 c 15.29875,0 30.60904,0.5297 34.02285,1.17712 6.69334,1.26937 9.66773,1.3744 39.13429,1.38193 18.55971,0.005 47.60397,3.12659 58.75,6.3148 8.6117,2.46329 21.03948,9.02214 22.59204,11.92311 2.90507,5.4282 -2.92087,17.96419 -9.5135,20.4707 -1.56374,0.59454 -8.55149,1.7091 -15.52834,2.47681 C 831.94411,726.01191 810,731.22004 810,733.84316 c 0,0.57191 -2.39063,2.114 -5.3125,3.42687 -4.82729,2.16898 -24.0293,16.50512 -26.22386,19.57861 -0.5513,0.7721 1.42407,1.89541 5,2.84328 32.47526,8.60823 52.83418,21.13863 62.94814,38.74301 3.43192,5.97362 3.69082,7.20254 2.8968,13.75 -1.10375,9.10149 -2.02253,10.79888 -8.3111,15.35429 -5.93672,4.30054 -10.89552,4.69739 -24.28164,1.94326 -13.65399,-2.80924 -28.9136,-4.81682 -30.26488,-3.98168 -0.68263,0.4219 -2.66518,0.22568 -4.40565,-0.43605 -3.69446,-1.40464 -19.01902,2.71558 -34.81562,9.36064 -8.07584,3.39722 -9.87908,3.77577 -11.08191,2.32644 -1.19799,-1.44349 -2.05144,-1.21368 -5.1381,1.38357 -2.03583,1.71304 -4.15293,3.1146 -4.70468,3.1146 -1.41625,0 -17.555,15.98284 -17.555,17.3854 0,0.63595 -0.70313,1.39909 -1.5625,1.69586 -2.71529,0.9377 -7.08864,-1.83132 -8.72265,-5.5228 -1.25021,-2.82442 -2.38706,-3.55846 -5.51125,-3.55846 -2.39679,0 -4.22599,0.75535 -4.67729,1.93144 -1.01644,2.64877 -8.87856,5.8906 -16.34457,6.73944 -5.55348,0.63138 -6.62575,1.28521 -10.37977,6.32912 -12.48116,16.76978 -25.75356,33.79128 -30.21502,38.75 -5.23753,5.82128 -19.06486,25.991 -29.28554,42.7184 -7.73425,12.65805 -22.65016,26.58958 -35.39368,33.05785 -8.26807,4.19665 -10.66097,4.84426 -17.79277,4.8154 -7.41521,-0.03 -9.17831,-0.57592 -17.61496,-5.45412 -5.15625,-2.98143 -11.15121,-7.10458 -13.32214,-9.16254 -3.82707,-3.62796 -3.988,-3.66539 -5.29109,-1.23055 -3.69616,6.90634 -28.62906,19.85755 -45.13677,23.44596 -10.88781,2.36676 -16.8548,2.16765 -24.63139,-0.82196 z" id="path3418" inkscape:connector-curvature="0"/>
  </g>
</svg>